<svg id="Layer_1" data-name="Layer 1" xmlns="http://www.w3.org/2000/svg" xmlns:xlink="http://www.w3.org/1999/xlink" viewBox="0 0 300 300"><defs><style>.cls-1{fill:none;}.cls-2{fill:#eb5981;}.cls-3{clip-path:url(#clip-path);}.cls-4{fill:#314194;}.cls-5{fill:#fff;}.cls-6{opacity:0.8;}.cls-7{opacity:0.7;}.cls-8{opacity:0.6;}.cls-9{opacity:0.4;}.cls-10{opacity:0.3;}.cls-11{opacity:0.1;}.cls-12{fill:#314293;opacity:0.56;}</style><clipPath id="clip-path"><circle class="cls-1" cx="153.73" cy="145.35" r="144.82"/></clipPath></defs><circle class="cls-2" cx="146" cy="152" r="144.82"/><g class="cls-3"><circle class="cls-4" cx="154.18" cy="144.82" r="144.82"/><path class="cls-5" d="M40.66,147c0,4.39-2.77,7.36-9.07,7.36-3.86,0-7.23-1.62-9-4.19l3.34-3a7.46,7.46,0,0,0,5.9,2.64c2.74,0,4-.76,4-2.51,0-1.49-.8-2.14-5.15-3.13s-7.23-2.35-7.23-6.9c0-4.19,3.7-6.76,8.25-6.76a11,11,0,0,1,8.41,3.63l-3.33,3.23A7,7,0,0,0,31.59,135c-2.48,0-3.3,1.06-3.3,2.08,0,1.45,1,1.92,4.65,2.77S40.66,142,40.66,147Z"/><path class="cls-5" d="M63.59,138.22c0,5.35-3.56,7.59-8.35,7.59H50.16V154H45.54V130.9h10.1C60,130.9,63.59,133.31,63.59,138.22Zm-4.75.1c0-2-1.32-2.93-3.37-2.93H50.16v5.94h5.38C57.68,141.33,58.84,140.34,58.84,138.32Z"/><path class="cls-5" d="M72.93,154H68.31V130.9h4.62Z"/><path class="cls-5" d="M95.4,154H79.2V130.9h4.62v18.54H95.4Z"/><path class="cls-5" d="M115.85,154H99.65V130.9h4.62v18.54h11.58Z"/><path class="cls-5" d="M138.81,146.54c0,4.85-3.26,7.45-8.21,7.45H120.11V130.9H130.7c4.49,0,7.32,2.14,7.32,6.1a5.07,5.07,0,0,1-2.44,4.49A5.27,5.27,0,0,1,138.81,146.54Zm-5.47-9.17c0-1.45-.83-2.21-2.84-2.21h-5.87v4.38h6.1C132.64,139.54,133.34,138.65,133.34,137.37Zm.72,9.23c0-2-1.05-3-3.3-3h-6.13v6h6.13C133,149.61,134.06,148.42,134.06,146.6Z"/><path class="cls-5" d="M163.2,154h-5.08l-1.82-5.14h-8.44L146,154h-4.95l8.84-23.09h4.49Zm-8.48-9.53-1.49-4.19c-.46-1.35-.92-2.74-1.15-3.6-.23.86-.69,2.25-1.16,3.6l-1.48,4.19Z"/><path class="cls-5" d="M183.59,147c0,4.39-2.77,7.36-9.08,7.36-3.85,0-7.22-1.62-9-4.19l3.33-3a7.5,7.5,0,0,0,5.91,2.64c2.74,0,4-.76,4-2.51,0-1.49-.79-2.14-5.14-3.13s-7.23-2.35-7.23-6.9c0-4.19,3.7-6.76,8.25-6.76a11,11,0,0,1,8.41,3.63l-3.33,3.23a7,7,0,0,0-5.25-2.38c-2.47,0-3.29,1.06-3.29,2.08,0,1.45,1,1.92,4.65,2.77S183.59,142,183.59,147Z"/><path class="cls-5" d="M208.07,154H203l-1.82-5.14h-8.44L190.91,154H186l8.85-23.09h4.48Zm-8.48-9.53-1.48-4.19c-.47-1.35-.93-2.74-1.16-3.6-.23.86-.69,2.25-1.15,3.6l-1.49,4.19Z"/><path class="cls-5" d="M231.06,154h-5.31l-4.12-8.31H217V154h-4.62V130.9h10.75c4.36,0,7.95,2.41,7.95,7.32,0,3.47-1.48,5.65-4.42,6.8Zm-4.75-15.67c0-2.08-1.25-2.93-3.29-2.93h-6v5.94h6C225.16,141.33,226.31,140.34,226.31,138.32Z"/><path class="cls-5" d="M239.84,151.25a3.1,3.1,0,1,1-3.1-3.1A3.14,3.14,0,0,1,239.84,151.25Z"/><path class="cls-5" d="M262.9,154h-4.12l-8.48-12.6c-.56-.86-1.32-2-1.62-2.6,0,.85.07,3.76.07,5V154H244.2V130.9h4.42l8.18,12.21c.56.85,1.32,2,1.62,2.6,0-.86-.07-3.76-.07-5V130.9h4.55Z"/><path class="cls-5" d="M287.91,142.41c0,7.46-4.19,12-10.19,12s-10.16-4.42-10.16-11.88,4.19-11.94,10.22-11.94S287.91,135,287.91,142.41Zm-4.75.07c0-4.68-2.24-7.36-5.48-7.36s-5.37,2.61-5.37,7.29,2.24,7.36,5.47,7.36S283.16,147.16,283.16,142.48Z"/><g class="cls-6"><path class="cls-2" d="M40.66,123.75c0,4.39-2.77,7.36-9.07,7.36-3.86,0-7.23-1.62-9-4.19L26,124a7.46,7.46,0,0,0,5.9,2.64c2.74,0,4-.76,4-2.51,0-1.48-.8-2.14-5.15-3.13s-7.23-2.34-7.23-6.9c0-4.19,3.7-6.76,8.25-6.76a11,11,0,0,1,8.41,3.63l-3.33,3.23a7,7,0,0,0-5.24-2.37c-2.48,0-3.3,1-3.3,2.08,0,1.45,1,1.91,4.65,2.77S40.66,118.74,40.66,123.75Z"/><path class="cls-2" d="M63.59,115c0,5.34-3.56,7.58-8.35,7.58H50.16v8.19H45.54v-23.1h10.1C60,107.65,63.59,110.06,63.59,115Zm-4.75.1c0-2-1.32-2.94-3.37-2.94H50.16v5.94h5.38C57.68,118.08,58.84,117.09,58.84,115.08Z"/><path class="cls-2" d="M72.93,130.75H68.31v-23.1h4.62Z"/><path class="cls-2" d="M95.4,130.75H79.2v-23.1h4.62v18.54H95.4Z"/><path class="cls-2" d="M115.85,130.75H99.65v-23.1h4.62v18.54h11.58Z"/><path class="cls-2" d="M138.81,123.29c0,4.85-3.26,7.46-8.21,7.46H120.11v-23.1H130.7c4.49,0,7.32,2.15,7.32,6.11a5.05,5.05,0,0,1-2.44,4.48A5.28,5.28,0,0,1,138.81,123.29Zm-5.47-9.17c0-1.45-.83-2.21-2.84-2.21h-5.87v4.39h6.1C132.64,116.3,133.34,115.41,133.34,114.12Zm.72,9.24c0-2-1.05-3-3.3-3h-6.13v6h6.13C133,126.36,134.06,125.17,134.06,123.36Z"/><path class="cls-2" d="M163.2,130.75h-5.08l-1.82-5.15h-8.44L146,130.75h-4.95l8.84-23.1h4.49Zm-8.48-9.54L153.23,117c-.46-1.35-.92-2.74-1.15-3.59-.23.85-.69,2.24-1.16,3.59l-1.48,4.19Z"/><path class="cls-2" d="M183.59,123.75c0,4.39-2.77,7.36-9.08,7.36-3.85,0-7.22-1.62-9-4.19l3.33-3a7.5,7.5,0,0,0,5.91,2.64c2.74,0,4-.76,4-2.51,0-1.48-.79-2.14-5.14-3.13s-7.23-2.34-7.23-6.9c0-4.19,3.7-6.76,8.25-6.76a11,11,0,0,1,8.41,3.63l-3.33,3.23a7,7,0,0,0-5.25-2.37c-2.47,0-3.29,1-3.29,2.08,0,1.45,1,1.91,4.65,2.77S183.59,118.74,183.59,123.75Z"/><path class="cls-2" d="M208.07,130.75H203l-1.82-5.15h-8.44l-1.82,5.15H186l8.85-23.1h4.48Zm-8.48-9.54L198.11,117c-.47-1.35-.93-2.74-1.16-3.59-.23.85-.69,2.24-1.15,3.59l-1.49,4.19Z"/><path class="cls-2" d="M231.06,130.75h-5.31l-4.12-8.32H217v8.32h-4.62v-23.1h10.75c4.36,0,7.95,2.41,7.95,7.33,0,3.46-1.48,5.64-4.42,6.79Zm-4.75-15.67c0-2.08-1.25-2.94-3.29-2.94h-6v5.94h6C225.16,118.08,226.31,117.09,226.31,115.08Z"/><path class="cls-2" d="M239.84,128a3.1,3.1,0,1,1-3.1-3.1A3.14,3.14,0,0,1,239.84,128Z"/><path class="cls-2" d="M262.9,130.75h-4.12l-8.48-12.61c-.56-.85-1.32-2-1.62-2.6,0,.86.07,3.76.07,5v10.16H244.2v-23.1h4.42l8.18,12.21c.56.86,1.32,2,1.62,2.61,0-.86-.07-3.76-.07-5v-9.77h4.55Z"/><path class="cls-2" d="M287.91,119.17c0,7.45-4.19,11.94-10.19,11.94s-10.16-4.42-10.16-11.88,4.19-11.94,10.22-11.94S287.91,111.71,287.91,119.17Zm-4.75.06c0-4.68-2.24-7.35-5.48-7.35s-5.37,2.6-5.37,7.29,2.24,7.35,5.47,7.35S283.16,123.92,283.16,119.23Z"/></g><g class="cls-7"><path class="cls-2" d="M40.66,100.5c0,4.39-2.77,7.36-9.07,7.36-3.86,0-7.23-1.62-9-4.19l3.34-3a7.46,7.46,0,0,0,5.9,2.64c2.74,0,4-.76,4-2.51,0-1.48-.8-2.14-5.15-3.13s-7.23-2.34-7.23-6.89c0-4.19,3.7-6.77,8.25-6.77a11,11,0,0,1,8.41,3.63L36.83,90.9a7,7,0,0,0-5.24-2.37c-2.48,0-3.3,1.06-3.3,2.08,0,1.45,1,1.91,4.65,2.77S40.66,95.49,40.66,100.5Z"/><path class="cls-2" d="M63.59,91.73c0,5.34-3.56,7.59-8.35,7.59H50.16v8.18H45.54V84.41h10.1C60,84.41,63.59,86.81,63.59,91.73Zm-4.75.1c0-2-1.32-2.94-3.37-2.94H50.16v5.94h5.38C57.68,94.83,58.84,93.84,58.84,91.83Z"/><path class="cls-2" d="M72.93,107.5H68.31V84.41h4.62Z"/><path class="cls-2" d="M95.4,107.5H79.2V84.41h4.62V103H95.4Z"/><path class="cls-2" d="M115.85,107.5H99.65V84.41h4.62V103h11.58Z"/><path class="cls-2" d="M138.81,100c0,4.85-3.26,7.46-8.21,7.46H120.11V84.41H130.7c4.49,0,7.32,2.14,7.32,6.1A5.08,5.08,0,0,1,135.58,95,5.26,5.26,0,0,1,138.81,100Zm-5.47-9.17c0-1.45-.83-2.21-2.84-2.21h-5.87v4.39h6.1C132.64,93.05,133.34,92.16,133.34,90.87Zm.72,9.24c0-2-1.05-3-3.3-3h-6.13v6h6.13C133,103.11,134.06,101.92,134.06,100.11Z"/><path class="cls-2" d="M163.2,107.5h-5.08l-1.82-5.15h-8.44L146,107.5h-4.95l8.84-23.09h4.49ZM154.72,98l-1.49-4.19c-.46-1.35-.92-2.73-1.15-3.59-.23.86-.69,2.24-1.16,3.59L149.44,98Z"/><path class="cls-2" d="M183.59,100.5c0,4.39-2.77,7.36-9.08,7.36-3.85,0-7.22-1.62-9-4.19l3.33-3a7.5,7.5,0,0,0,5.91,2.64c2.74,0,4-.76,4-2.51,0-1.48-.79-2.14-5.14-3.13s-7.23-2.34-7.23-6.89c0-4.19,3.7-6.77,8.25-6.77a11,11,0,0,1,8.41,3.63l-3.33,3.23a7.05,7.05,0,0,0-5.25-2.37c-2.47,0-3.29,1.06-3.29,2.08,0,1.45,1,1.91,4.65,2.77S183.59,95.49,183.59,100.5Z"/><path class="cls-2" d="M208.07,107.5H203l-1.82-5.15h-8.44l-1.82,5.15H186l8.85-23.09h4.48ZM199.59,98l-1.48-4.19c-.47-1.35-.93-2.73-1.16-3.59-.23.86-.69,2.24-1.15,3.59L194.31,98Z"/><path class="cls-2" d="M231.06,107.5h-5.31l-4.12-8.31H217v8.31h-4.62V84.41h10.75c4.36,0,7.95,2.4,7.95,7.32,0,3.46-1.48,5.64-4.42,6.8Zm-4.75-15.67c0-2.08-1.25-2.94-3.29-2.94h-6v5.94h6C225.16,94.83,226.31,93.84,226.31,91.83Z"/><path class="cls-2" d="M239.84,104.76a3.1,3.1,0,1,1-3.1-3.1A3.14,3.14,0,0,1,239.84,104.76Z"/><path class="cls-2" d="M262.9,107.5h-4.12L250.3,94.9c-.56-.86-1.32-2-1.62-2.61,0,.86.07,3.76.07,5V107.5H244.2V84.41h4.42l8.18,12.2c.56.86,1.32,2,1.62,2.61,0-.86-.07-3.76-.07-5V84.41h4.55Z"/><path class="cls-2" d="M287.91,95.92c0,7.46-4.19,11.94-10.19,11.94S267.56,103.44,267.56,96,271.75,84,277.78,84,287.91,88.46,287.91,95.92Zm-4.75.07c0-4.69-2.24-7.36-5.48-7.36s-5.37,2.6-5.37,7.29,2.24,7.36,5.47,7.36S283.16,100.67,283.16,96Z"/></g><g class="cls-8"><path class="cls-2" d="M40.66,76.89c0,4.39-2.77,7.36-9.07,7.36-3.86,0-7.23-1.62-9-4.19l3.34-3a7.46,7.46,0,0,0,5.9,2.64c2.74,0,4-.76,4-2.51,0-1.49-.8-2.15-5.15-3.14s-7.23-2.34-7.23-6.89c0-4.19,3.7-6.76,8.25-6.76a11,11,0,0,1,8.41,3.63l-3.33,3.23a7,7,0,0,0-5.24-2.38c-2.48,0-3.3,1.06-3.3,2.08,0,1.45,1,1.92,4.65,2.77S40.66,71.87,40.66,76.89Z"/><path class="cls-2" d="M63.59,68.11c0,5.35-3.56,7.59-8.35,7.59H50.16v8.18H45.54V60.79h10.1C60,60.79,63.59,63.2,63.59,68.11Zm-4.75.1c0-2-1.32-2.93-3.37-2.93H50.16v5.93h5.38C57.68,71.21,58.84,70.22,58.84,68.21Z"/><path class="cls-2" d="M72.93,83.88H68.31V60.79h4.62Z"/><path class="cls-2" d="M95.4,83.88H79.2V60.79h4.62V79.33H95.4Z"/><path class="cls-2" d="M115.85,83.88H99.65V60.79h4.62V79.33h11.58Z"/><path class="cls-2" d="M138.81,76.43c0,4.85-3.26,7.45-8.21,7.45H120.11V60.79H130.7c4.49,0,7.32,2.14,7.32,6.1a5.07,5.07,0,0,1-2.44,4.49A5.27,5.27,0,0,1,138.81,76.43Zm-5.47-9.17c0-1.46-.83-2.21-2.84-2.21h-5.87v4.38h6.1C132.64,69.43,133.34,68.54,133.34,67.26Zm.72,9.23c0-2-1.05-3-3.3-3h-6.13v6h6.13C133,79.49,134.06,78.31,134.06,76.49Z"/><path class="cls-2" d="M163.2,83.88h-5.08l-1.82-5.14h-8.44L146,83.88h-4.95l8.84-23.09h4.49Zm-8.48-9.53-1.49-4.19c-.46-1.35-.92-2.74-1.15-3.6-.23.86-.69,2.25-1.16,3.6l-1.48,4.19Z"/><path class="cls-2" d="M183.59,76.89c0,4.39-2.77,7.36-9.08,7.36-3.85,0-7.22-1.62-9-4.19l3.33-3a7.5,7.5,0,0,0,5.91,2.64c2.74,0,4-.76,4-2.51,0-1.49-.79-2.15-5.14-3.14s-7.23-2.34-7.23-6.89c0-4.19,3.7-6.76,8.25-6.76a11,11,0,0,1,8.41,3.63l-3.33,3.23a7,7,0,0,0-5.25-2.38c-2.47,0-3.29,1.06-3.29,2.08,0,1.45,1,1.92,4.65,2.77S183.59,71.87,183.59,76.89Z"/><path class="cls-2" d="M208.07,83.88H203l-1.82-5.14h-8.44l-1.82,5.14H186l8.85-23.09h4.48Zm-8.48-9.53-1.48-4.19c-.47-1.35-.93-2.74-1.16-3.6-.23.86-.69,2.25-1.15,3.6l-1.49,4.19Z"/><path class="cls-2" d="M231.06,83.88h-5.31l-4.12-8.31H217v8.31h-4.62V60.79h10.75c4.36,0,7.95,2.41,7.95,7.32,0,3.47-1.48,5.64-4.42,6.8Zm-4.75-15.67c0-2.08-1.25-2.93-3.29-2.93h-6v5.93h6C225.16,71.21,226.31,70.22,226.31,68.21Z"/><path class="cls-2" d="M239.84,81.14a3.1,3.1,0,1,1-3.1-3.1A3.14,3.14,0,0,1,239.84,81.14Z"/><path class="cls-2" d="M262.9,83.88h-4.12l-8.48-12.6c-.56-.86-1.32-2-1.62-2.61,0,.86.07,3.77.07,5V83.88H244.2V60.79h4.42L256.8,73c.56.85,1.32,2,1.62,2.6,0-.86-.07-3.76-.07-5V60.79h4.55Z"/><path class="cls-2" d="M287.91,72.3c0,7.46-4.19,12-10.19,12s-10.16-4.43-10.16-11.88,4.19-11.94,10.22-11.94S287.91,64.85,287.91,72.3Zm-4.75.07c0-4.69-2.24-7.36-5.48-7.36s-5.37,2.61-5.37,7.29,2.24,7.36,5.47,7.36S283.16,77.05,283.16,72.37Z"/></g><g class="cls-9"><path class="cls-2" d="M40.66,53.64C40.66,58,37.89,61,31.59,61c-3.86,0-7.23-1.62-9-4.19l3.34-3a7.46,7.46,0,0,0,5.9,2.64c2.74,0,4-.76,4-2.51,0-1.48-.8-2.14-5.15-3.13s-7.23-2.34-7.23-6.9c0-4.19,3.7-6.76,8.25-6.76a11,11,0,0,1,8.41,3.63L36.83,44a7,7,0,0,0-5.24-2.37c-2.48,0-3.3,1-3.3,2.07,0,1.46,1,1.92,4.65,2.78S40.66,48.63,40.66,53.64Z"/><path class="cls-2" d="M63.59,44.87c0,5.34-3.56,7.58-8.35,7.58H50.16v8.19H45.54V37.54h10.1C60,37.54,63.59,40,63.59,44.87Zm-4.75.1c0-2-1.32-2.94-3.37-2.94H50.16V48h5.38C57.68,48,58.84,47,58.84,45Z"/><path class="cls-2" d="M72.93,60.64H68.31V37.54h4.62Z"/><path class="cls-2" d="M95.4,60.64H79.2V37.54h4.62V56.08H95.4Z"/><path class="cls-2" d="M115.85,60.64H99.65V37.54h4.62V56.08h11.58Z"/><path class="cls-2" d="M138.81,53.18c0,4.85-3.26,7.46-8.21,7.46H120.11V37.54H130.7c4.49,0,7.32,2.15,7.32,6.11a5.06,5.06,0,0,1-2.44,4.48A5.28,5.28,0,0,1,138.81,53.18ZM133.34,44c0-1.45-.83-2.21-2.84-2.21h-5.87v4.39h6.1C132.64,46.19,133.34,45.29,133.34,44Zm.72,9.24c0-2-1.05-3-3.3-3h-6.13v6h6.13C133,56.25,134.06,55.06,134.06,53.25Z"/><path class="cls-2" d="M163.2,60.64h-5.08l-1.82-5.15h-8.44L146,60.64h-4.95l8.84-23.1h4.49Zm-8.48-9.54-1.49-4.19c-.46-1.35-.92-2.74-1.15-3.59-.23.85-.69,2.24-1.16,3.59l-1.48,4.19Z"/><path class="cls-2" d="M183.59,53.64c0,4.39-2.77,7.36-9.08,7.36-3.85,0-7.22-1.62-9-4.19l3.33-3a7.5,7.5,0,0,0,5.91,2.64c2.74,0,4-.76,4-2.51,0-1.48-.79-2.14-5.14-3.13s-7.23-2.34-7.23-6.9c0-4.19,3.7-6.76,8.25-6.76a11,11,0,0,1,8.41,3.63L179.76,44a7,7,0,0,0-5.25-2.37c-2.47,0-3.29,1-3.29,2.07,0,1.46,1,1.92,4.65,2.78S183.59,48.63,183.59,53.64Z"/><path class="cls-2" d="M208.07,60.64H203l-1.82-5.15h-8.44l-1.82,5.15H186l8.85-23.1h4.48Zm-8.48-9.54-1.48-4.19c-.47-1.35-.93-2.74-1.16-3.59-.23.85-.69,2.24-1.15,3.59l-1.49,4.19Z"/><path class="cls-2" d="M231.06,60.64h-5.31l-4.12-8.32H217v8.32h-4.62V37.54h10.75c4.36,0,7.95,2.41,7.95,7.33,0,3.46-1.48,5.64-4.42,6.79ZM226.31,45c0-2.08-1.25-2.94-3.29-2.94h-6V48h6C225.16,48,226.31,47,226.31,45Z"/><path class="cls-2" d="M239.84,57.9a3.1,3.1,0,1,1-3.1-3.1A3.14,3.14,0,0,1,239.84,57.9Z"/><path class="cls-2" d="M262.9,60.64h-4.12L250.3,48c-.56-.85-1.32-2-1.62-2.6,0,.85.07,3.76.07,5V60.64H244.2V37.54h4.42l8.18,12.21c.56.86,1.32,2,1.62,2.6,0-.85-.07-3.76-.07-5V37.54h4.55Z"/><path class="cls-2" d="M287.91,49.06c0,7.45-4.19,11.94-10.19,11.94s-10.16-4.42-10.16-11.88,4.19-11.94,10.22-11.94S287.91,41.6,287.91,49.06Zm-4.75.06c0-4.68-2.24-7.35-5.48-7.35s-5.37,2.6-5.37,7.29,2.24,7.35,5.47,7.35S283.16,53.81,283.16,49.12Z"/></g><g class="cls-10"><path class="cls-2" d="M40.66,30.66C40.66,35,37.89,38,31.59,38c-3.86,0-7.23-1.61-9-4.19l3.34-3a7.46,7.46,0,0,0,5.9,2.64c2.74,0,4-.76,4-2.5,0-1.49-.8-2.15-5.15-3.14S23.5,25.51,23.5,21c0-4.19,3.7-6.77,8.25-6.77a11,11,0,0,1,8.41,3.63l-3.33,3.24a7,7,0,0,0-5.24-2.38c-2.48,0-3.3,1.06-3.3,2.08,0,1.45,1,1.91,4.65,2.77S40.66,25.64,40.66,30.66Z"/><path class="cls-2" d="M63.59,21.88c0,5.35-3.56,7.59-8.35,7.59H50.16v8.18H45.54V14.56h10.1C60,14.56,63.59,17,63.59,21.88Zm-4.75.1c0-2-1.32-2.94-3.37-2.94H50.16V25h5.38C57.68,25,58.84,24,58.84,22Z"/><path class="cls-2" d="M72.93,37.65H68.31V14.56h4.62Z"/><path class="cls-2" d="M95.4,37.65H79.2V14.56h4.62V33.1H95.4Z"/><path class="cls-2" d="M115.85,37.65H99.65V14.56h4.62V33.1h11.58Z"/><path class="cls-2" d="M138.81,30.19c0,4.85-3.26,7.46-8.21,7.46H120.11V14.56H130.7c4.49,0,7.32,2.14,7.32,6.1a5.08,5.08,0,0,1-2.44,4.49A5.26,5.26,0,0,1,138.81,30.19ZM133.34,21c0-1.45-.83-2.21-2.84-2.21h-5.87V23.2h6.1C132.64,23.2,133.34,22.31,133.34,21Zm.72,9.24c0-2-1.05-3-3.3-3h-6.13v6h6.13C133,33.26,134.06,32.07,134.06,30.26Z"/><path class="cls-2" d="M163.2,37.65h-5.08L156.3,32.5h-8.44L146,37.65h-4.95l8.84-23.09h4.49Zm-8.48-9.53-1.49-4.19c-.46-1.36-.92-2.74-1.15-3.6-.23.86-.69,2.24-1.16,3.6l-1.48,4.19Z"/><path class="cls-2" d="M183.59,30.66c0,4.38-2.77,7.35-9.08,7.35-3.85,0-7.22-1.61-9-4.19l3.33-3a7.5,7.5,0,0,0,5.91,2.64c2.74,0,4-.76,4-2.5,0-1.49-.79-2.15-5.14-3.14s-7.23-2.34-7.23-6.89c0-4.19,3.7-6.77,8.25-6.77a11,11,0,0,1,8.41,3.63l-3.33,3.24a7,7,0,0,0-5.25-2.38c-2.47,0-3.29,1.06-3.29,2.08,0,1.45,1,1.91,4.65,2.77S183.59,25.64,183.59,30.66Z"/><path class="cls-2" d="M208.07,37.65H203l-1.82-5.15h-8.44l-1.82,5.15H186l8.85-23.09h4.48Zm-8.48-9.53-1.48-4.19c-.47-1.36-.93-2.74-1.16-3.6-.23.86-.69,2.24-1.15,3.6l-1.49,4.19Z"/><path class="cls-2" d="M231.06,37.65h-5.31l-4.12-8.31H217v8.31h-4.62V14.56h10.75c4.36,0,7.95,2.41,7.95,7.32,0,3.46-1.48,5.64-4.42,6.8ZM226.31,22c0-2.08-1.25-2.94-3.29-2.94h-6V25h6C225.16,25,226.31,24,226.31,22Z"/><path class="cls-2" d="M239.84,34.91a3.1,3.1,0,1,1-3.1-3.1A3.14,3.14,0,0,1,239.84,34.91Z"/><path class="cls-2" d="M262.9,37.65h-4.12l-8.48-12.6c-.56-.86-1.32-2-1.62-2.61,0,.86.07,3.76.07,5V37.65H244.2V14.56h4.42l8.18,12.2c.56.86,1.32,2,1.62,2.61,0-.86-.07-3.76-.07-5.05V14.56h4.55Z"/><path class="cls-2" d="M287.91,26.07c0,7.46-4.19,11.94-10.19,11.94s-10.16-4.42-10.16-11.87,4.19-12,10.22-12S287.91,18.61,287.91,26.07Zm-4.75.07c0-4.69-2.24-7.36-5.48-7.36s-5.37,2.61-5.37,7.29,2.24,7.36,5.47,7.36S283.16,30.82,283.16,26.14Z"/></g><g class="cls-11"><path class="cls-2" d="M40.66,7.08c0,4.38-2.77,7.35-9.07,7.35-3.86,0-7.23-1.61-9-4.19l3.34-3a7.46,7.46,0,0,0,5.9,2.64c2.74,0,4-.76,4-2.5,0-1.49-.8-2.15-5.15-3.14S23.5,1.93,23.5-2.62c0-4.19,3.7-6.77,8.25-6.77a11,11,0,0,1,8.41,3.63L36.83-2.52A7,7,0,0,0,31.59-4.9c-2.48,0-3.3,1.06-3.3,2.08,0,1.45,1,1.91,4.65,2.77S40.66,2.06,40.66,7.08Z"/><path class="cls-2" d="M63.59-1.7c0,5.34-3.56,7.59-8.35,7.59H50.16v8.18H45.54V-9h10.1C60-9,63.59-6.62,63.59-1.7Zm-4.75.1c0-2-1.32-2.94-3.37-2.94H50.16V1.4h5.38C57.68,1.4,58.84.41,58.84-1.6Z"/><path class="cls-2" d="M72.93,14.07H68.31V-9h4.62Z"/><path class="cls-2" d="M95.4,14.07H79.2V-9h4.62V9.52H95.4Z"/><path class="cls-2" d="M115.85,14.07H99.65V-9h4.62V9.52h11.58Z"/><path class="cls-2" d="M138.81,6.61c0,4.85-3.26,7.46-8.21,7.46H120.11V-9H130.7c4.49,0,7.32,2.14,7.32,6.1a5.08,5.08,0,0,1-2.44,4.49A5.26,5.26,0,0,1,138.81,6.61Zm-5.47-9.17c0-1.45-.83-2.21-2.84-2.21h-5.87V-.38h6.1C132.64-.38,133.34-1.27,133.34-2.56Zm.72,9.24c0-2-1.05-3-3.3-3h-6.13v6h6.13C133,9.68,134.06,8.49,134.06,6.68Z"/><path class="cls-2" d="M163.2,14.07h-5.08L156.3,8.92h-8.44L146,14.07h-4.95L149.93-9h4.49Zm-8.48-9.53L153.23.35c-.46-1.36-.92-2.74-1.15-3.6-.23.86-.69,2.24-1.16,3.6l-1.48,4.19Z"/><path class="cls-2" d="M183.59,7.08c0,4.38-2.77,7.35-9.08,7.35-3.85,0-7.22-1.61-9-4.19l3.33-3a7.5,7.5,0,0,0,5.91,2.64c2.74,0,4-.76,4-2.5,0-1.49-.79-2.15-5.14-3.14s-7.23-2.34-7.23-6.89c0-4.19,3.7-6.77,8.25-6.77a11,11,0,0,1,8.41,3.63l-3.33,3.24a7,7,0,0,0-5.25-2.38c-2.47,0-3.29,1.06-3.29,2.08,0,1.45,1,1.91,4.65,2.77S183.59,2.06,183.59,7.08Z"/><path class="cls-2" d="M208.07,14.07H203l-1.82-5.15h-8.44l-1.82,5.15H186L194.81-9h4.48Zm-8.48-9.53L198.11.35c-.47-1.36-.93-2.74-1.16-3.6-.23.86-.69,2.24-1.15,3.6l-1.49,4.19Z"/><path class="cls-2" d="M231.06,14.07h-5.31l-4.12-8.31H217v8.31h-4.62V-9h10.75c4.36,0,7.95,2.4,7.95,7.32,0,3.46-1.48,5.64-4.42,6.8ZM226.31-1.6c0-2.08-1.25-2.94-3.29-2.94h-6V1.4h6C225.16,1.4,226.31.41,226.31-1.6Z"/><path class="cls-2" d="M239.84,11.33a3.1,3.1,0,1,1-3.1-3.1A3.14,3.14,0,0,1,239.84,11.33Z"/><path class="cls-2" d="M262.9,14.07h-4.12L250.3,1.47c-.56-.86-1.32-2-1.62-2.61,0,.86.07,3.76.07,5.05V14.07H244.2V-9h4.42l8.18,12.2c.56.86,1.32,2,1.62,2.61,0-.86-.07-3.76-.07-5V-9h4.55Z"/><path class="cls-2" d="M287.91,2.49c0,7.46-4.19,11.94-10.19,11.94S267.56,10,267.56,2.56s4.19-12,10.22-12S287.91-5,287.91,2.49Zm-4.75.07c0-4.69-2.24-7.36-5.48-7.36s-5.37,2.61-5.37,7.29,2.24,7.36,5.47,7.36S283.16,7.24,283.16,2.56Z"/></g><g class="cls-9"><path class="cls-2" d="M40.66,239.9c0,4.39-2.77,7.36-9.07,7.36-3.86,0-7.23-1.62-9-4.19l3.34-3a7.46,7.46,0,0,0,5.9,2.64c2.74,0,4-.76,4-2.51,0-1.48-.8-2.14-5.15-3.13s-7.23-2.34-7.23-6.89c0-4.19,3.7-6.77,8.25-6.77a11,11,0,0,1,8.41,3.63l-3.33,3.23a7,7,0,0,0-5.24-2.37c-2.48,0-3.3,1.06-3.3,2.08,0,1.45,1,1.91,4.65,2.77S40.66,234.89,40.66,239.9Z"/><path class="cls-2" d="M63.59,231.13c0,5.34-3.56,7.59-8.35,7.59H50.16v8.18H45.54V223.81h10.1C60,223.81,63.59,226.21,63.59,231.13Zm-4.75.1c0-2-1.32-2.94-3.37-2.94H50.16v5.94h5.38C57.68,234.23,58.84,233.24,58.84,231.23Z"/><path class="cls-2" d="M72.93,246.9H68.31V223.81h4.62Z"/><path class="cls-2" d="M95.4,246.9H79.2V223.81h4.62v18.54H95.4Z"/><path class="cls-2" d="M115.85,246.9H99.65V223.81h4.62v18.54h11.58Z"/><path class="cls-2" d="M138.81,239.44c0,4.85-3.26,7.46-8.21,7.46H120.11V223.81H130.7c4.49,0,7.32,2.14,7.32,6.1a5.08,5.08,0,0,1-2.44,4.49A5.26,5.26,0,0,1,138.81,239.44Zm-5.47-9.17c0-1.45-.83-2.21-2.84-2.21h-5.87v4.39h6.1C132.64,232.45,133.34,231.56,133.34,230.27Zm.72,9.24c0-2-1.05-3-3.3-3h-6.13v6h6.13C133,242.51,134.06,241.32,134.06,239.51Z"/><path class="cls-2" d="M163.2,246.9h-5.08l-1.82-5.15h-8.44L146,246.9h-4.95l8.84-23.09h4.49Zm-8.48-9.54-1.49-4.19c-.46-1.35-.92-2.73-1.15-3.59-.23.86-.69,2.24-1.16,3.59l-1.48,4.19Z"/><path class="cls-2" d="M183.59,239.9c0,4.39-2.77,7.36-9.08,7.36-3.85,0-7.22-1.62-9-4.19l3.33-3a7.5,7.5,0,0,0,5.91,2.64c2.74,0,4-.76,4-2.51,0-1.48-.79-2.14-5.14-3.13s-7.23-2.34-7.23-6.89c0-4.19,3.7-6.77,8.25-6.77a11,11,0,0,1,8.41,3.63l-3.33,3.23a7.05,7.05,0,0,0-5.25-2.37c-2.47,0-3.29,1.06-3.29,2.08,0,1.45,1,1.91,4.65,2.77S183.59,234.89,183.59,239.9Z"/><path class="cls-2" d="M208.07,246.9H203l-1.82-5.15h-8.44l-1.82,5.15H186l8.85-23.09h4.48Zm-8.48-9.54-1.48-4.19c-.47-1.35-.93-2.73-1.16-3.59-.23.86-.69,2.24-1.15,3.59l-1.49,4.19Z"/><path class="cls-2" d="M231.06,246.9h-5.31l-4.12-8.32H217v8.32h-4.62V223.81h10.75c4.36,0,7.95,2.4,7.95,7.32,0,3.46-1.48,5.64-4.42,6.79Zm-4.75-15.67c0-2.08-1.25-2.94-3.29-2.94h-6v5.94h6C225.16,234.23,226.31,233.24,226.31,231.23Z"/><path class="cls-2" d="M239.84,244.16a3.1,3.1,0,1,1-3.1-3.1A3.14,3.14,0,0,1,239.84,244.16Z"/><path class="cls-2" d="M262.9,246.9h-4.12l-8.48-12.6c-.56-.86-1.32-2-1.62-2.61,0,.86.07,3.76.07,5.05V246.9H244.2V223.81h4.42L256.8,236c.56.86,1.32,2,1.62,2.61,0-.86-.07-3.76-.07-5.05v-9.76h4.55Z"/><path class="cls-2" d="M287.91,235.32c0,7.45-4.19,11.94-10.19,11.94s-10.16-4.42-10.16-11.88,4.19-11.94,10.22-11.94S287.91,227.86,287.91,235.32Zm-4.75.06c0-4.68-2.24-7.35-5.48-7.35s-5.37,2.6-5.37,7.29,2.24,7.36,5.47,7.36S283.16,240.07,283.16,235.38Z"/></g><g class="cls-8"><path class="cls-2" d="M40.66,216.66c0,4.38-2.77,7.35-9.07,7.35-3.86,0-7.23-1.61-9-4.19l3.34-3a7.43,7.43,0,0,0,5.9,2.64c2.74,0,4-.75,4-2.5,0-1.49-.8-2.15-5.15-3.14S23.5,211.51,23.5,207c0-4.19,3.7-6.76,8.25-6.76a11,11,0,0,1,8.41,3.62l-3.33,3.24a7,7,0,0,0-5.24-2.38c-2.48,0-3.3,1.06-3.3,2.08,0,1.45,1,1.91,4.65,2.77S40.66,211.64,40.66,216.66Z"/><path class="cls-2" d="M63.59,207.88c0,5.35-3.56,7.59-8.35,7.59H50.16v8.18H45.54V200.56h10.1C60,200.56,63.59,203,63.59,207.88Zm-4.75.1c0-2-1.32-2.94-3.37-2.94H50.16V211h5.38C57.68,211,58.84,210,58.84,208Z"/><path class="cls-2" d="M72.93,223.65H68.31V200.56h4.62Z"/><path class="cls-2" d="M95.4,223.65H79.2V200.56h4.62V219.1H95.4Z"/><path class="cls-2" d="M115.85,223.65H99.65V200.56h4.62V219.1h11.58Z"/><path class="cls-2" d="M138.81,216.2c0,4.84-3.26,7.45-8.21,7.45H120.11V200.56H130.7c4.49,0,7.32,2.14,7.32,6.1a5.08,5.08,0,0,1-2.44,4.49A5.27,5.27,0,0,1,138.81,216.2ZM133.34,207c0-1.45-.83-2.21-2.84-2.21h-5.87v4.39h6.1C132.64,209.2,133.34,208.31,133.34,207Zm.72,9.24c0-2-1.05-3-3.3-3h-6.13v6h6.13C133,219.26,134.06,218.08,134.06,216.26Z"/><path class="cls-2" d="M163.2,223.65h-5.08l-1.82-5.15h-8.44L146,223.65h-4.95l8.84-23.09h4.49Zm-8.48-9.53-1.49-4.19c-.46-1.36-.92-2.74-1.15-3.6-.23.86-.69,2.24-1.16,3.6l-1.48,4.19Z"/><path class="cls-2" d="M183.59,216.66c0,4.38-2.77,7.35-9.08,7.35-3.85,0-7.22-1.61-9-4.19l3.33-3a7.47,7.47,0,0,0,5.91,2.64c2.74,0,4-.75,4-2.5,0-1.49-.79-2.15-5.14-3.14s-7.23-2.34-7.23-6.89c0-4.19,3.7-6.76,8.25-6.76a11,11,0,0,1,8.41,3.62l-3.33,3.24a7,7,0,0,0-5.25-2.38c-2.47,0-3.29,1.06-3.29,2.08,0,1.45,1,1.91,4.65,2.77S183.59,211.64,183.59,216.66Z"/><path class="cls-2" d="M208.07,223.65H203l-1.82-5.15h-8.44l-1.82,5.15H186l8.85-23.09h4.48Zm-8.48-9.53-1.48-4.19c-.47-1.36-.93-2.74-1.16-3.6-.23.86-.69,2.24-1.15,3.6l-1.49,4.19Z"/><path class="cls-2" d="M231.06,223.65h-5.31l-4.12-8.31H217v8.31h-4.62V200.56h10.75c4.36,0,7.95,2.41,7.95,7.32,0,3.47-1.48,5.64-4.42,6.8ZM226.31,208c0-2.08-1.25-2.94-3.29-2.94h-6V211h6C225.16,211,226.31,210,226.31,208Z"/><path class="cls-2" d="M239.84,220.91a3.1,3.1,0,1,1-3.1-3.1A3.14,3.14,0,0,1,239.84,220.91Z"/><path class="cls-2" d="M262.9,223.65h-4.12l-8.48-12.6c-.56-.86-1.32-2-1.62-2.61,0,.86.07,3.76.07,5.05v10.16H244.2V200.56h4.42l8.18,12.2c.56.86,1.32,2,1.62,2.61,0-.86-.07-3.76-.07-5.05v-9.76h4.55Z"/><path class="cls-2" d="M287.91,212.07c0,7.46-4.19,11.94-10.19,11.94s-10.16-4.42-10.16-11.87,4.19-11.94,10.22-11.94S287.91,204.62,287.91,212.07Zm-4.75.07c0-4.69-2.24-7.36-5.48-7.36s-5.37,2.61-5.37,7.29,2.24,7.36,5.47,7.36S283.16,216.82,283.16,212.14Z"/></g><g class="cls-7"><path class="cls-2" d="M40.66,193.67c0,4.39-2.77,7.36-9.07,7.36-3.86,0-7.23-1.62-9-4.19l3.34-3a7.46,7.46,0,0,0,5.9,2.64c2.74,0,4-.76,4-2.51,0-1.48-.8-2.14-5.15-3.13s-7.23-2.34-7.23-6.9c0-4.19,3.7-6.76,8.25-6.76a11,11,0,0,1,8.41,3.63l-3.33,3.23a7,7,0,0,0-5.24-2.37c-2.48,0-3.3,1.05-3.3,2.08,0,1.45,1,1.91,4.65,2.77S40.66,188.66,40.66,193.67Z"/><path class="cls-2" d="M63.59,184.9c0,5.34-3.56,7.58-8.35,7.58H50.16v8.19H45.54v-23.1h10.1C60,177.57,63.59,180,63.59,184.9Zm-4.75.1c0-2-1.32-2.94-3.37-2.94H50.16V188h5.38C57.68,188,58.84,187,58.84,185Z"/><path class="cls-2" d="M72.93,200.67H68.31v-23.1h4.62Z"/><path class="cls-2" d="M95.4,200.67H79.2v-23.1h4.62v18.54H95.4Z"/><path class="cls-2" d="M115.85,200.67H99.65v-23.1h4.62v18.54h11.58Z"/><path class="cls-2" d="M138.81,193.21c0,4.85-3.26,7.46-8.21,7.46H120.11v-23.1H130.7c4.49,0,7.32,2.15,7.32,6.11a5.05,5.05,0,0,1-2.44,4.48A5.28,5.28,0,0,1,138.81,193.21ZM133.34,184c0-1.45-.83-2.21-2.84-2.21h-5.87v4.39h6.1C132.64,186.22,133.34,185.33,133.34,184Zm.72,9.24c0-2-1.05-3-3.3-3h-6.13v6h6.13C133,196.28,134.06,195.09,134.06,193.28Z"/><path class="cls-2" d="M163.2,200.67h-5.08l-1.82-5.15h-8.44L146,200.67h-4.95l8.84-23.1h4.49Zm-8.48-9.54-1.49-4.19c-.46-1.35-.92-2.74-1.15-3.59-.23.85-.69,2.24-1.16,3.59l-1.48,4.19Z"/><path class="cls-2" d="M183.59,193.67c0,4.39-2.77,7.36-9.08,7.36-3.85,0-7.22-1.62-9-4.19l3.33-3a7.5,7.5,0,0,0,5.91,2.64c2.74,0,4-.76,4-2.51,0-1.48-.79-2.14-5.14-3.13s-7.23-2.34-7.23-6.9c0-4.19,3.7-6.76,8.25-6.76a11,11,0,0,1,8.41,3.63l-3.33,3.23a7,7,0,0,0-5.25-2.37c-2.47,0-3.29,1.05-3.29,2.08,0,1.45,1,1.91,4.65,2.77S183.59,188.66,183.59,193.67Z"/><path class="cls-2" d="M208.07,200.67H203l-1.82-5.15h-8.44l-1.82,5.15H186l8.85-23.1h4.48Zm-8.48-9.54-1.48-4.19c-.47-1.35-.93-2.74-1.16-3.59-.23.85-.69,2.24-1.15,3.59l-1.49,4.19Z"/><path class="cls-2" d="M231.06,200.67h-5.31l-4.12-8.32H217v8.32h-4.62v-23.1h10.75c4.36,0,7.95,2.41,7.95,7.33,0,3.46-1.48,5.64-4.42,6.79ZM226.31,185c0-2.08-1.25-2.94-3.29-2.94h-6V188h6C225.16,188,226.31,187,226.31,185Z"/><path class="cls-2" d="M239.84,197.93a3.1,3.1,0,1,1-3.1-3.1A3.14,3.14,0,0,1,239.84,197.93Z"/><path class="cls-2" d="M262.9,200.67h-4.12l-8.48-12.61c-.56-.85-1.32-2-1.62-2.6,0,.86.07,3.76.07,5v10.17H244.2v-23.1h4.42l8.18,12.21c.56.86,1.32,2,1.62,2.61,0-.86-.07-3.77-.07-5v-9.77h4.55Z"/><path class="cls-2" d="M287.91,189.09c0,7.45-4.19,11.94-10.19,11.94s-10.16-4.42-10.16-11.88,4.19-11.94,10.22-11.94S287.91,181.63,287.91,189.09Zm-4.75.06c0-4.68-2.24-7.35-5.48-7.35s-5.37,2.6-5.37,7.29,2.24,7.35,5.47,7.35S283.16,193.84,283.16,189.15Z"/></g><g class="cls-11"><path class="cls-2" d="M40.66,285.69c0,4.39-2.77,7.36-9.07,7.36-3.86,0-7.23-1.62-9-4.19l3.34-3a7.46,7.46,0,0,0,5.9,2.64c2.74,0,4-.76,4-2.51,0-1.48-.8-2.14-5.15-3.13S23.5,280.55,23.5,276c0-4.19,3.7-6.77,8.25-6.77a11,11,0,0,1,8.41,3.63l-3.33,3.23a7,7,0,0,0-5.24-2.37c-2.48,0-3.3,1-3.3,2.08,0,1.45,1,1.91,4.65,2.77S40.66,280.68,40.66,285.69Z"/><path class="cls-2" d="M63.59,276.92c0,5.34-3.56,7.59-8.35,7.59H50.16v8.18H45.54v-23.1h10.1C60,269.59,63.59,272,63.59,276.92Zm-4.75.1c0-2-1.32-2.94-3.37-2.94H50.16V280h5.38C57.68,280,58.84,279,58.84,277Z"/><path class="cls-2" d="M72.93,292.69H68.31v-23.1h4.62Z"/><path class="cls-2" d="M95.4,292.69H79.2v-23.1h4.62v18.54H95.4Z"/><path class="cls-2" d="M115.85,292.69H99.65v-23.1h4.62v18.54h11.58Z"/><path class="cls-2" d="M138.81,285.23c0,4.85-3.26,7.46-8.21,7.46H120.11v-23.1H130.7c4.49,0,7.32,2.15,7.32,6.11a5.05,5.05,0,0,1-2.44,4.48A5.28,5.28,0,0,1,138.81,285.23Zm-5.47-9.17c0-1.45-.83-2.21-2.84-2.21h-5.87v4.39h6.1C132.64,278.24,133.34,277.35,133.34,276.06Zm.72,9.24c0-2-1.05-3-3.3-3h-6.13v6h6.13C133,288.3,134.06,287.11,134.06,285.3Z"/><path class="cls-2" d="M163.2,292.69h-5.08l-1.82-5.15h-8.44L146,292.69h-4.95l8.84-23.1h4.49Zm-8.48-9.54L153.23,279c-.46-1.35-.92-2.73-1.15-3.59-.23.86-.69,2.24-1.16,3.59l-1.48,4.19Z"/><path class="cls-2" d="M183.59,285.69c0,4.39-2.77,7.36-9.08,7.36-3.85,0-7.22-1.62-9-4.19l3.33-3a7.5,7.5,0,0,0,5.91,2.64c2.74,0,4-.76,4-2.51,0-1.48-.79-2.14-5.14-3.13s-7.23-2.34-7.23-6.89c0-4.19,3.7-6.77,8.25-6.77a11,11,0,0,1,8.41,3.63l-3.33,3.23a7.05,7.05,0,0,0-5.25-2.37c-2.47,0-3.29,1-3.29,2.08,0,1.45,1,1.91,4.65,2.77S183.59,280.68,183.59,285.69Z"/><path class="cls-2" d="M208.07,292.69H203l-1.82-5.15h-8.44l-1.82,5.15H186l8.85-23.1h4.48Zm-8.48-9.54L198.11,279c-.47-1.35-.93-2.73-1.16-3.59-.23.86-.69,2.24-1.15,3.59l-1.49,4.19Z"/><path class="cls-2" d="M231.06,292.69h-5.31l-4.12-8.32H217v8.32h-4.62v-23.1h10.75c4.36,0,7.95,2.41,7.95,7.33,0,3.46-1.48,5.64-4.42,6.79ZM226.31,277c0-2.08-1.25-2.94-3.29-2.94h-6V280h6C225.16,280,226.31,279,226.31,277Z"/><path class="cls-2" d="M239.84,290a3.1,3.1,0,1,1-3.1-3.1A3.14,3.14,0,0,1,239.84,290Z"/><path class="cls-2" d="M262.9,292.69h-4.12l-8.48-12.6c-.56-.86-1.32-2-1.62-2.61,0,.86.07,3.76.07,5v10.16H244.2v-23.1h4.42l8.18,12.21c.56.86,1.32,2,1.62,2.61,0-.86-.07-3.76-.07-5.05v-9.77h4.55Z"/><path class="cls-2" d="M287.91,281.11c0,7.45-4.19,11.94-10.19,11.94s-10.16-4.42-10.16-11.88,4.19-11.94,10.22-11.94S287.91,273.65,287.91,281.11Zm-4.75.06c0-4.68-2.24-7.35-5.48-7.35s-5.37,2.6-5.37,7.29,2.24,7.35,5.47,7.35S283.16,285.86,283.16,281.17Z"/></g><g class="cls-10"><path class="cls-2" d="M40.66,262.71c0,4.39-2.77,7.36-9.07,7.36-3.86,0-7.23-1.62-9-4.19l3.34-3a7.46,7.46,0,0,0,5.9,2.64c2.74,0,4-.76,4-2.51,0-1.49-.8-2.15-5.15-3.14S23.5,257.56,23.5,253c0-4.19,3.7-6.76,8.25-6.76a11,11,0,0,1,8.41,3.63l-3.33,3.23a7,7,0,0,0-5.24-2.38c-2.48,0-3.3,1.06-3.3,2.08,0,1.45,1,1.92,4.65,2.77S40.66,257.69,40.66,262.71Z"/><path class="cls-2" d="M63.59,253.93c0,5.35-3.56,7.59-8.35,7.59H50.16v8.18H45.54V246.61h10.1C60,246.61,63.59,249,63.59,253.93Zm-4.75.1c0-2-1.32-2.93-3.37-2.93H50.16V257h5.38C57.68,257,58.84,256,58.84,254Z"/><path class="cls-2" d="M72.93,269.7H68.31V246.61h4.62Z"/><path class="cls-2" d="M95.4,269.7H79.2V246.61h4.62v18.54H95.4Z"/><path class="cls-2" d="M115.85,269.7H99.65V246.61h4.62v18.54h11.58Z"/><path class="cls-2" d="M138.81,262.25c0,4.85-3.26,7.45-8.21,7.45H120.11V246.61H130.7c4.49,0,7.32,2.14,7.32,6.1a5.07,5.07,0,0,1-2.44,4.49A5.27,5.27,0,0,1,138.81,262.25Zm-5.47-9.17c0-1.46-.83-2.21-2.84-2.21h-5.87v4.38h6.1C132.64,255.25,133.34,254.36,133.34,253.08Zm.72,9.23c0-2-1.05-3-3.3-3h-6.13v6h6.13C133,265.31,134.06,264.13,134.06,262.31Z"/><path class="cls-2" d="M163.2,269.7h-5.08l-1.82-5.14h-8.44L146,269.7h-4.95l8.84-23.09h4.49Zm-8.48-9.53L153.23,256c-.46-1.35-.92-2.74-1.15-3.6-.23.86-.69,2.25-1.16,3.6l-1.48,4.19Z"/><path class="cls-2" d="M183.59,262.71c0,4.39-2.77,7.36-9.08,7.36-3.85,0-7.22-1.62-9-4.19l3.33-3a7.5,7.5,0,0,0,5.91,2.64c2.74,0,4-.76,4-2.51,0-1.49-.79-2.15-5.14-3.14s-7.23-2.34-7.23-6.89c0-4.19,3.7-6.76,8.25-6.76a11,11,0,0,1,8.41,3.63l-3.33,3.23a7,7,0,0,0-5.25-2.38c-2.47,0-3.29,1.06-3.29,2.08,0,1.45,1,1.92,4.65,2.77S183.59,257.69,183.59,262.71Z"/><path class="cls-2" d="M208.07,269.7H203l-1.82-5.14h-8.44l-1.82,5.14H186l8.85-23.09h4.48Zm-8.48-9.53L198.11,256c-.47-1.35-.93-2.74-1.16-3.6-.23.86-.69,2.25-1.15,3.6l-1.49,4.19Z"/><path class="cls-2" d="M231.06,269.7h-5.31l-4.12-8.31H217v8.31h-4.62V246.61h10.75c4.36,0,7.95,2.41,7.95,7.32,0,3.47-1.48,5.64-4.42,6.8ZM226.31,254c0-2.08-1.25-2.93-3.29-2.93h-6V257h6C225.16,257,226.31,256,226.31,254Z"/><path class="cls-2" d="M239.84,267a3.1,3.1,0,1,1-3.1-3.1A3.14,3.14,0,0,1,239.84,267Z"/><path class="cls-2" d="M262.9,269.7h-4.12l-8.48-12.6c-.56-.86-1.32-2-1.62-2.61,0,.86.07,3.76.07,5.05V269.7H244.2V246.61h4.42l8.18,12.21c.56.85,1.32,2,1.62,2.6,0-.86-.07-3.76-.07-5v-9.77h4.55Z"/><path class="cls-2" d="M287.91,258.12c0,7.46-4.19,11.95-10.19,11.95s-10.16-4.43-10.16-11.88,4.19-11.94,10.22-11.94S287.91,250.67,287.91,258.12Zm-4.75.07c0-4.69-2.24-7.36-5.48-7.36s-5.37,2.61-5.37,7.29,2.24,7.36,5.47,7.36S283.16,262.87,283.16,258.19Z"/></g><g class="cls-6"><path class="cls-2" d="M40.66,170.09c0,4.39-2.77,7.36-9.07,7.36-3.86,0-7.23-1.62-9-4.19l3.34-3a7.46,7.46,0,0,0,5.9,2.64c2.74,0,4-.76,4-2.51,0-1.48-.8-2.14-5.15-3.13s-7.23-2.35-7.23-6.9c0-4.19,3.7-6.76,8.25-6.76a11,11,0,0,1,8.41,3.63l-3.33,3.23a7,7,0,0,0-5.24-2.37c-2.48,0-3.3,1-3.3,2.07,0,1.46,1,1.92,4.65,2.77S40.66,165.08,40.66,170.09Z"/><path class="cls-2" d="M63.59,161.32c0,5.34-3.56,7.58-8.35,7.58H50.16v8.18H45.54V154h10.1C60,154,63.59,156.4,63.59,161.32Zm-4.75.1c0-2-1.32-2.94-3.37-2.94H50.16v5.94h5.38C57.68,164.42,58.84,163.43,58.84,161.42Z"/><path class="cls-2" d="M72.93,177.08H68.31V154h4.62Z"/><path class="cls-2" d="M95.4,177.08H79.2V154h4.62v18.54H95.4Z"/><path class="cls-2" d="M115.85,177.08H99.65V154h4.62v18.54h11.58Z"/><path class="cls-2" d="M138.81,169.63c0,4.85-3.26,7.45-8.21,7.45H120.11V154H130.7c4.49,0,7.32,2.15,7.32,6.1a5.07,5.07,0,0,1-2.44,4.49A5.28,5.28,0,0,1,138.81,169.63Zm-5.47-9.17c0-1.45-.83-2.21-2.84-2.21h-5.87v4.39h6.1C132.64,162.64,133.34,161.74,133.34,160.46Zm.72,9.24c0-2-1.05-3-3.3-3h-6.13v6h6.13C133,172.7,134.06,171.51,134.06,169.7Z"/><path class="cls-2" d="M163.2,177.08h-5.08l-1.82-5.14h-8.44L146,177.08h-4.95L149.93,154h4.49Zm-8.48-9.53-1.49-4.19c-.46-1.35-.92-2.74-1.15-3.59-.23.85-.69,2.24-1.16,3.59l-1.48,4.19Z"/><path class="cls-2" d="M183.59,170.09c0,4.39-2.77,7.36-9.08,7.36-3.85,0-7.22-1.62-9-4.19l3.33-3a7.5,7.5,0,0,0,5.91,2.64c2.74,0,4-.76,4-2.51,0-1.48-.79-2.14-5.14-3.13s-7.23-2.35-7.23-6.9c0-4.19,3.7-6.76,8.25-6.76a11,11,0,0,1,8.41,3.63l-3.33,3.23a7,7,0,0,0-5.25-2.37c-2.47,0-3.29,1-3.29,2.07,0,1.46,1,1.92,4.65,2.77S183.59,165.08,183.59,170.09Z"/><path class="cls-2" d="M208.07,177.08H203l-1.82-5.14h-8.44l-1.82,5.14H186L194.81,154h4.48Zm-8.48-9.53-1.48-4.19c-.47-1.35-.93-2.74-1.16-3.59-.23.85-.69,2.24-1.15,3.59l-1.49,4.19Z"/><path class="cls-2" d="M231.06,177.08h-5.31l-4.12-8.31H217v8.31h-4.62V154h10.75c4.36,0,7.95,2.41,7.95,7.33,0,3.46-1.48,5.64-4.42,6.79Zm-4.75-15.66c0-2.08-1.25-2.94-3.29-2.94h-6v5.94h6C225.16,164.42,226.31,163.43,226.31,161.42Z"/><path class="cls-2" d="M239.84,174.35a3.1,3.1,0,1,1-3.1-3.1A3.14,3.14,0,0,1,239.84,174.35Z"/><path class="cls-2" d="M262.9,177.08h-4.12l-8.48-12.6c-.56-.86-1.32-2-1.62-2.6,0,.85.07,3.76.07,5v10.16H244.2V154h4.42l8.18,12.21c.56.86,1.32,2,1.62,2.6,0-.85-.07-3.76-.07-5V154h4.55Z"/><path class="cls-2" d="M287.91,165.51c0,7.45-4.19,11.94-10.19,11.94s-10.16-4.42-10.16-11.88,4.19-11.94,10.22-11.94S287.91,158.05,287.91,165.51Zm-4.75.06c0-4.68-2.24-7.36-5.48-7.36s-5.37,2.61-5.37,7.3,2.24,7.35,5.47,7.35S283.16,170.26,283.16,165.57Z"/></g><g class="cls-6"><path class="cls-2" d="M40.66,123.75c0,4.39-2.77,7.36-9.07,7.36-3.86,0-7.23-1.62-9-4.19L26,124a7.46,7.46,0,0,0,5.9,2.64c2.74,0,4-.76,4-2.51,0-1.48-.8-2.14-5.15-3.13s-7.23-2.34-7.23-6.9c0-4.19,3.7-6.76,8.25-6.76a11,11,0,0,1,8.41,3.63l-3.33,3.23a7,7,0,0,0-5.24-2.37c-2.48,0-3.3,1-3.3,2.08,0,1.45,1,1.91,4.65,2.77S40.66,118.74,40.66,123.75Z"/><path class="cls-2" d="M63.59,115c0,5.34-3.56,7.58-8.35,7.58H50.16v8.19H45.54v-23.1h10.1C60,107.65,63.59,110.06,63.59,115Zm-4.75.1c0-2-1.32-2.94-3.37-2.94H50.16v5.94h5.38C57.68,118.08,58.84,117.09,58.84,115.08Z"/><path class="cls-2" d="M72.93,130.75H68.31v-23.1h4.62Z"/><path class="cls-2" d="M95.4,130.75H79.2v-23.1h4.62v18.54H95.4Z"/><path class="cls-2" d="M115.85,130.75H99.65v-23.1h4.62v18.54h11.58Z"/><path class="cls-2" d="M138.81,123.29c0,4.85-3.26,7.46-8.21,7.46H120.11v-23.1H130.7c4.49,0,7.32,2.15,7.32,6.11a5.05,5.05,0,0,1-2.44,4.48A5.28,5.28,0,0,1,138.81,123.29Zm-5.47-9.17c0-1.45-.83-2.21-2.84-2.21h-5.87v4.39h6.1C132.64,116.3,133.34,115.41,133.34,114.12Zm.72,9.24c0-2-1.05-3-3.3-3h-6.13v6h6.13C133,126.36,134.06,125.17,134.06,123.36Z"/><path class="cls-2" d="M163.2,130.75h-5.08l-1.82-5.15h-8.44L146,130.75h-4.95l8.84-23.1h4.49Zm-8.48-9.54L153.23,117c-.46-1.35-.92-2.74-1.15-3.59-.23.85-.69,2.24-1.16,3.59l-1.48,4.19Z"/><path class="cls-2" d="M183.59,123.75c0,4.39-2.77,7.36-9.08,7.36-3.85,0-7.22-1.62-9-4.19l3.33-3a7.5,7.5,0,0,0,5.91,2.64c2.74,0,4-.76,4-2.51,0-1.48-.79-2.14-5.14-3.13s-7.23-2.34-7.23-6.9c0-4.19,3.7-6.76,8.25-6.76a11,11,0,0,1,8.41,3.63l-3.33,3.23a7,7,0,0,0-5.25-2.37c-2.47,0-3.29,1-3.29,2.08,0,1.45,1,1.91,4.65,2.77S183.59,118.74,183.59,123.75Z"/><path class="cls-2" d="M208.07,130.75H203l-1.82-5.15h-8.44l-1.82,5.15H186l8.85-23.1h4.48Zm-8.48-9.54L198.11,117c-.47-1.35-.93-2.74-1.16-3.59-.23.85-.69,2.24-1.15,3.59l-1.49,4.19Z"/><path class="cls-2" d="M231.06,130.75h-5.31l-4.12-8.32H217v8.32h-4.62v-23.1h10.75c4.36,0,7.95,2.41,7.95,7.33,0,3.46-1.48,5.64-4.42,6.79Zm-4.75-15.67c0-2.08-1.25-2.94-3.29-2.94h-6v5.94h6C225.16,118.08,226.31,117.09,226.31,115.08Z"/><path class="cls-2" d="M239.84,128a3.1,3.1,0,1,1-3.1-3.1A3.14,3.14,0,0,1,239.84,128Z"/><path class="cls-2" d="M262.9,130.75h-4.12l-8.48-12.61c-.56-.85-1.32-2-1.62-2.6,0,.86.07,3.76.07,5v10.16H244.2v-23.1h4.42l8.18,12.21c.56.86,1.32,2,1.62,2.61,0-.86-.07-3.76-.07-5v-9.77h4.55Z"/><path class="cls-2" d="M287.91,119.17c0,7.45-4.19,11.94-10.19,11.94s-10.16-4.42-10.16-11.88,4.19-11.94,10.22-11.94S287.91,111.71,287.91,119.17Zm-4.75.06c0-4.68-2.24-7.35-5.48-7.35s-5.37,2.6-5.37,7.29,2.24,7.35,5.47,7.35S283.16,123.92,283.16,119.23Z"/></g><g class="cls-7"><path class="cls-2" d="M40.66,100.5c0,4.39-2.77,7.36-9.07,7.36-3.86,0-7.23-1.62-9-4.19l3.34-3a7.46,7.46,0,0,0,5.9,2.64c2.74,0,4-.76,4-2.51,0-1.48-.8-2.14-5.15-3.13s-7.23-2.34-7.23-6.89c0-4.19,3.7-6.77,8.25-6.77a11,11,0,0,1,8.41,3.63L36.83,90.9a7,7,0,0,0-5.24-2.37c-2.48,0-3.3,1.06-3.3,2.08,0,1.45,1,1.91,4.65,2.77S40.66,95.49,40.66,100.5Z"/><path class="cls-2" d="M63.59,91.73c0,5.34-3.56,7.59-8.35,7.59H50.16v8.18H45.54V84.41h10.1C60,84.41,63.59,86.81,63.59,91.73Zm-4.75.1c0-2-1.32-2.94-3.37-2.94H50.16v5.94h5.38C57.68,94.83,58.84,93.84,58.84,91.83Z"/><path class="cls-2" d="M72.93,107.5H68.31V84.41h4.62Z"/><path class="cls-2" d="M95.4,107.5H79.2V84.41h4.62V103H95.4Z"/><path class="cls-2" d="M115.85,107.5H99.65V84.41h4.62V103h11.58Z"/><path class="cls-2" d="M138.81,100c0,4.85-3.26,7.46-8.21,7.46H120.11V84.41H130.7c4.49,0,7.32,2.14,7.32,6.1A5.08,5.08,0,0,1,135.58,95,5.26,5.26,0,0,1,138.81,100Zm-5.47-9.17c0-1.45-.83-2.21-2.84-2.21h-5.87v4.39h6.1C132.64,93.05,133.34,92.16,133.34,90.87Zm.72,9.24c0-2-1.05-3-3.3-3h-6.13v6h6.13C133,103.11,134.06,101.92,134.06,100.11Z"/><path class="cls-2" d="M163.2,107.5h-5.08l-1.82-5.15h-8.44L146,107.5h-4.95l8.84-23.09h4.49ZM154.72,98l-1.49-4.19c-.46-1.35-.92-2.73-1.15-3.59-.23.86-.69,2.24-1.16,3.59L149.44,98Z"/><path class="cls-2" d="M183.59,100.5c0,4.39-2.77,7.36-9.08,7.36-3.85,0-7.22-1.62-9-4.19l3.33-3a7.5,7.5,0,0,0,5.91,2.64c2.74,0,4-.76,4-2.51,0-1.48-.79-2.14-5.14-3.13s-7.23-2.34-7.23-6.89c0-4.19,3.7-6.77,8.25-6.77a11,11,0,0,1,8.41,3.63l-3.33,3.23a7.05,7.05,0,0,0-5.25-2.37c-2.47,0-3.29,1.06-3.29,2.08,0,1.45,1,1.91,4.65,2.77S183.59,95.49,183.59,100.5Z"/><path class="cls-2" d="M208.07,107.5H203l-1.82-5.15h-8.44l-1.82,5.15H186l8.85-23.09h4.48ZM199.59,98l-1.48-4.19c-.47-1.35-.93-2.73-1.16-3.59-.23.86-.69,2.24-1.15,3.59L194.31,98Z"/><path class="cls-2" d="M231.06,107.5h-5.31l-4.12-8.31H217v8.31h-4.62V84.41h10.75c4.36,0,7.95,2.4,7.95,7.32,0,3.46-1.48,5.64-4.42,6.8Zm-4.75-15.67c0-2.08-1.25-2.94-3.29-2.94h-6v5.94h6C225.16,94.83,226.31,93.84,226.31,91.83Z"/><path class="cls-2" d="M239.84,104.76a3.1,3.1,0,1,1-3.1-3.1A3.14,3.14,0,0,1,239.84,104.76Z"/><path class="cls-2" d="M262.9,107.5h-4.12L250.3,94.9c-.56-.86-1.32-2-1.62-2.61,0,.86.07,3.76.07,5V107.5H244.2V84.41h4.42l8.18,12.2c.56.86,1.32,2,1.62,2.61,0-.86-.07-3.76-.07-5V84.41h4.55Z"/><path class="cls-2" d="M287.91,95.92c0,7.46-4.19,11.94-10.19,11.94S267.56,103.44,267.56,96,271.75,84,277.78,84,287.91,88.46,287.91,95.92Zm-4.75.07c0-4.69-2.24-7.36-5.48-7.36s-5.37,2.6-5.37,7.29,2.24,7.36,5.47,7.36S283.16,100.67,283.16,96Z"/></g><g class="cls-8"><path class="cls-2" d="M40.66,76.89c0,4.39-2.77,7.36-9.07,7.36-3.86,0-7.23-1.62-9-4.19l3.34-3a7.46,7.46,0,0,0,5.9,2.64c2.74,0,4-.76,4-2.51,0-1.49-.8-2.15-5.15-3.14s-7.23-2.34-7.23-6.89c0-4.19,3.7-6.76,8.25-6.76a11,11,0,0,1,8.41,3.63l-3.33,3.23a7,7,0,0,0-5.24-2.38c-2.48,0-3.3,1.06-3.3,2.08,0,1.45,1,1.92,4.65,2.77S40.66,71.87,40.66,76.89Z"/><path class="cls-2" d="M63.59,68.11c0,5.35-3.56,7.59-8.35,7.59H50.16v8.18H45.54V60.79h10.1C60,60.79,63.59,63.2,63.59,68.11Zm-4.75.1c0-2-1.32-2.93-3.37-2.93H50.16v5.93h5.38C57.68,71.21,58.84,70.22,58.84,68.21Z"/><path class="cls-2" d="M72.93,83.88H68.31V60.79h4.62Z"/><path class="cls-2" d="M95.4,83.88H79.2V60.79h4.62V79.33H95.4Z"/><path class="cls-2" d="M115.85,83.88H99.65V60.79h4.62V79.33h11.58Z"/><path class="cls-2" d="M138.81,76.43c0,4.85-3.26,7.45-8.21,7.45H120.11V60.79H130.7c4.49,0,7.32,2.14,7.32,6.1a5.07,5.07,0,0,1-2.44,4.49A5.27,5.27,0,0,1,138.81,76.43Zm-5.47-9.17c0-1.46-.83-2.21-2.84-2.21h-5.87v4.38h6.1C132.64,69.43,133.34,68.54,133.34,67.26Zm.72,9.23c0-2-1.05-3-3.3-3h-6.13v6h6.13C133,79.49,134.06,78.31,134.06,76.49Z"/><path class="cls-2" d="M163.2,83.88h-5.08l-1.82-5.14h-8.44L146,83.88h-4.95l8.84-23.09h4.49Zm-8.48-9.53-1.49-4.19c-.46-1.35-.92-2.74-1.15-3.6-.23.86-.69,2.25-1.16,3.6l-1.48,4.19Z"/><path class="cls-2" d="M183.59,76.89c0,4.39-2.77,7.36-9.08,7.36-3.85,0-7.22-1.62-9-4.19l3.33-3a7.5,7.5,0,0,0,5.91,2.64c2.74,0,4-.76,4-2.51,0-1.49-.79-2.15-5.14-3.14s-7.23-2.34-7.23-6.89c0-4.19,3.7-6.76,8.25-6.76a11,11,0,0,1,8.41,3.63l-3.33,3.23a7,7,0,0,0-5.25-2.38c-2.47,0-3.29,1.06-3.29,2.08,0,1.45,1,1.92,4.65,2.77S183.59,71.87,183.59,76.89Z"/><path class="cls-2" d="M208.07,83.88H203l-1.82-5.14h-8.44l-1.82,5.14H186l8.85-23.09h4.48Zm-8.48-9.53-1.48-4.19c-.47-1.35-.93-2.74-1.16-3.6-.23.86-.69,2.25-1.15,3.6l-1.49,4.19Z"/><path class="cls-2" d="M231.06,83.88h-5.31l-4.12-8.31H217v8.31h-4.62V60.79h10.75c4.36,0,7.95,2.41,7.95,7.32,0,3.47-1.48,5.64-4.42,6.8Zm-4.75-15.67c0-2.08-1.25-2.93-3.29-2.93h-6v5.93h6C225.16,71.21,226.31,70.22,226.31,68.21Z"/><path class="cls-2" d="M239.84,81.14a3.1,3.1,0,1,1-3.1-3.1A3.14,3.14,0,0,1,239.84,81.14Z"/><path class="cls-2" d="M262.9,83.88h-4.12l-8.48-12.6c-.56-.86-1.32-2-1.62-2.61,0,.86.07,3.77.07,5V83.88H244.2V60.79h4.42L256.8,73c.56.85,1.32,2,1.62,2.6,0-.86-.07-3.76-.07-5V60.79h4.55Z"/><path class="cls-2" d="M287.91,72.3c0,7.46-4.19,12-10.19,12s-10.16-4.43-10.16-11.88,4.19-11.94,10.22-11.94S287.91,64.85,287.91,72.3Zm-4.75.07c0-4.69-2.24-7.36-5.48-7.36s-5.37,2.61-5.37,7.29,2.24,7.36,5.47,7.36S283.16,77.05,283.16,72.37Z"/></g><g class="cls-9"><path class="cls-2" d="M40.66,53.64C40.66,58,37.89,61,31.59,61c-3.86,0-7.23-1.62-9-4.19l3.34-3a7.46,7.46,0,0,0,5.9,2.64c2.74,0,4-.76,4-2.51,0-1.48-.8-2.14-5.15-3.13s-7.23-2.34-7.23-6.9c0-4.19,3.7-6.76,8.25-6.76a11,11,0,0,1,8.41,3.63L36.83,44a7,7,0,0,0-5.24-2.37c-2.48,0-3.3,1-3.3,2.07,0,1.46,1,1.92,4.65,2.78S40.66,48.63,40.66,53.64Z"/><path class="cls-2" d="M63.59,44.87c0,5.34-3.56,7.58-8.35,7.58H50.16v8.19H45.54V37.54h10.1C60,37.54,63.59,40,63.59,44.87Zm-4.75.1c0-2-1.32-2.94-3.37-2.94H50.16V48h5.38C57.68,48,58.84,47,58.84,45Z"/><path class="cls-2" d="M72.93,60.64H68.31V37.54h4.62Z"/><path class="cls-2" d="M95.4,60.64H79.2V37.54h4.62V56.08H95.4Z"/><path class="cls-2" d="M115.85,60.64H99.65V37.54h4.62V56.08h11.58Z"/><path class="cls-2" d="M138.81,53.18c0,4.85-3.26,7.46-8.21,7.46H120.11V37.54H130.7c4.49,0,7.32,2.15,7.32,6.11a5.06,5.06,0,0,1-2.44,4.48A5.28,5.28,0,0,1,138.81,53.18ZM133.34,44c0-1.45-.83-2.21-2.84-2.21h-5.87v4.39h6.1C132.64,46.19,133.34,45.29,133.34,44Zm.72,9.24c0-2-1.05-3-3.3-3h-6.13v6h6.13C133,56.25,134.06,55.06,134.06,53.25Z"/><path class="cls-2" d="M163.2,60.64h-5.08l-1.82-5.15h-8.44L146,60.64h-4.95l8.84-23.1h4.49Zm-8.48-9.54-1.49-4.19c-.46-1.35-.92-2.74-1.15-3.59-.23.85-.69,2.24-1.16,3.59l-1.48,4.19Z"/><path class="cls-2" d="M183.59,53.64c0,4.39-2.77,7.36-9.08,7.36-3.85,0-7.22-1.62-9-4.19l3.33-3a7.5,7.5,0,0,0,5.91,2.64c2.74,0,4-.76,4-2.51,0-1.48-.79-2.14-5.14-3.13s-7.23-2.34-7.23-6.9c0-4.19,3.7-6.76,8.25-6.76a11,11,0,0,1,8.41,3.63L179.76,44a7,7,0,0,0-5.25-2.37c-2.47,0-3.29,1-3.29,2.07,0,1.46,1,1.92,4.65,2.78S183.59,48.63,183.59,53.64Z"/><path class="cls-2" d="M208.07,60.64H203l-1.82-5.15h-8.44l-1.82,5.15H186l8.85-23.1h4.48Zm-8.48-9.54-1.48-4.19c-.47-1.35-.93-2.74-1.16-3.59-.23.85-.69,2.24-1.15,3.59l-1.49,4.19Z"/><path class="cls-2" d="M231.06,60.64h-5.31l-4.12-8.32H217v8.32h-4.62V37.54h10.75c4.36,0,7.95,2.41,7.95,7.33,0,3.46-1.48,5.64-4.42,6.79ZM226.31,45c0-2.08-1.25-2.94-3.29-2.94h-6V48h6C225.16,48,226.31,47,226.31,45Z"/><path class="cls-2" d="M239.84,57.9a3.1,3.1,0,1,1-3.1-3.1A3.14,3.14,0,0,1,239.84,57.9Z"/><path class="cls-2" d="M262.9,60.64h-4.12L250.3,48c-.56-.85-1.32-2-1.62-2.6,0,.85.07,3.76.07,5V60.64H244.2V37.54h4.42l8.18,12.21c.56.86,1.32,2,1.62,2.6,0-.85-.07-3.76-.07-5V37.54h4.55Z"/><path class="cls-2" d="M287.91,49.06c0,7.45-4.19,11.94-10.19,11.94s-10.16-4.42-10.16-11.88,4.19-11.94,10.22-11.94S287.91,41.6,287.91,49.06Zm-4.75.06c0-4.68-2.24-7.35-5.48-7.35s-5.37,2.6-5.37,7.29,2.24,7.35,5.47,7.35S283.16,53.81,283.16,49.12Z"/></g><g class="cls-10"><path class="cls-2" d="M40.66,30.66C40.66,35,37.89,38,31.59,38c-3.86,0-7.23-1.61-9-4.19l3.34-3a7.46,7.46,0,0,0,5.9,2.64c2.74,0,4-.76,4-2.5,0-1.49-.8-2.15-5.15-3.14S23.5,25.51,23.5,21c0-4.19,3.7-6.77,8.25-6.77a11,11,0,0,1,8.41,3.63l-3.33,3.24a7,7,0,0,0-5.24-2.38c-2.48,0-3.3,1.06-3.3,2.08,0,1.45,1,1.91,4.65,2.77S40.66,25.64,40.66,30.66Z"/><path class="cls-2" d="M63.59,21.88c0,5.35-3.56,7.59-8.35,7.59H50.16v8.18H45.54V14.56h10.1C60,14.56,63.59,17,63.59,21.88Zm-4.75.1c0-2-1.32-2.94-3.37-2.94H50.16V25h5.38C57.68,25,58.84,24,58.84,22Z"/><path class="cls-2" d="M72.93,37.65H68.31V14.56h4.62Z"/><path class="cls-2" d="M95.4,37.65H79.2V14.56h4.62V33.1H95.4Z"/><path class="cls-2" d="M115.85,37.65H99.65V14.56h4.62V33.1h11.58Z"/><path class="cls-2" d="M138.81,30.19c0,4.85-3.26,7.46-8.21,7.46H120.11V14.56H130.7c4.49,0,7.32,2.14,7.32,6.1a5.08,5.08,0,0,1-2.44,4.49A5.26,5.26,0,0,1,138.81,30.19ZM133.34,21c0-1.45-.83-2.21-2.84-2.21h-5.87V23.2h6.1C132.64,23.2,133.34,22.31,133.34,21Zm.72,9.24c0-2-1.05-3-3.3-3h-6.13v6h6.13C133,33.26,134.06,32.07,134.06,30.26Z"/><path class="cls-2" d="M163.2,37.65h-5.08L156.3,32.5h-8.44L146,37.65h-4.95l8.84-23.09h4.49Zm-8.48-9.53-1.49-4.19c-.46-1.36-.92-2.74-1.15-3.6-.23.86-.69,2.24-1.16,3.6l-1.48,4.19Z"/><path class="cls-2" d="M183.59,30.66c0,4.38-2.77,7.35-9.08,7.35-3.85,0-7.22-1.61-9-4.19l3.33-3a7.5,7.5,0,0,0,5.91,2.64c2.74,0,4-.76,4-2.5,0-1.49-.79-2.15-5.14-3.14s-7.23-2.34-7.23-6.89c0-4.19,3.7-6.77,8.25-6.77a11,11,0,0,1,8.41,3.63l-3.33,3.24a7,7,0,0,0-5.25-2.38c-2.47,0-3.29,1.06-3.29,2.08,0,1.45,1,1.91,4.65,2.77S183.59,25.64,183.59,30.66Z"/><path class="cls-2" d="M208.07,37.65H203l-1.82-5.15h-8.44l-1.82,5.15H186l8.85-23.09h4.48Zm-8.48-9.53-1.48-4.19c-.47-1.36-.93-2.74-1.16-3.6-.23.86-.69,2.24-1.15,3.6l-1.49,4.19Z"/><path class="cls-2" d="M231.06,37.65h-5.31l-4.12-8.31H217v8.31h-4.62V14.56h10.75c4.36,0,7.95,2.41,7.95,7.32,0,3.46-1.48,5.64-4.42,6.8ZM226.31,22c0-2.08-1.25-2.94-3.29-2.94h-6V25h6C225.16,25,226.31,24,226.31,22Z"/><path class="cls-2" d="M239.84,34.91a3.1,3.1,0,1,1-3.1-3.1A3.14,3.14,0,0,1,239.84,34.91Z"/><path class="cls-2" d="M262.9,37.65h-4.12l-8.48-12.6c-.56-.86-1.32-2-1.62-2.61,0,.86.07,3.76.07,5V37.65H244.2V14.56h4.42l8.18,12.2c.56.86,1.32,2,1.62,2.61,0-.86-.07-3.76-.07-5.05V14.56h4.55Z"/><path class="cls-2" d="M287.91,26.07c0,7.46-4.19,11.94-10.19,11.94s-10.16-4.42-10.16-11.87,4.19-12,10.22-12S287.91,18.61,287.91,26.07Zm-4.75.07c0-4.69-2.24-7.36-5.48-7.36s-5.37,2.61-5.37,7.29,2.24,7.36,5.47,7.36S283.16,30.82,283.16,26.14Z"/></g><g class="cls-11"><path class="cls-2" d="M40.66,7.08c0,4.38-2.77,7.35-9.07,7.35-3.86,0-7.23-1.61-9-4.19l3.34-3a7.46,7.46,0,0,0,5.9,2.64c2.74,0,4-.76,4-2.5,0-1.49-.8-2.15-5.15-3.14S23.5,1.93,23.5-2.62c0-4.19,3.7-6.77,8.25-6.77a11,11,0,0,1,8.41,3.63L36.83-2.52A7,7,0,0,0,31.59-4.9c-2.48,0-3.3,1.06-3.3,2.08,0,1.45,1,1.91,4.65,2.77S40.66,2.06,40.66,7.08Z"/><path class="cls-2" d="M63.59-1.7c0,5.34-3.56,7.59-8.35,7.59H50.16v8.18H45.54V-9h10.1C60-9,63.59-6.62,63.59-1.7Zm-4.75.1c0-2-1.32-2.94-3.37-2.94H50.16V1.4h5.38C57.68,1.4,58.84.41,58.84-1.6Z"/><path class="cls-2" d="M72.93,14.07H68.31V-9h4.62Z"/><path class="cls-2" d="M95.4,14.07H79.2V-9h4.62V9.52H95.4Z"/><path class="cls-2" d="M115.85,14.07H99.65V-9h4.62V9.52h11.58Z"/><path class="cls-2" d="M138.81,6.61c0,4.85-3.26,7.46-8.21,7.46H120.11V-9H130.7c4.49,0,7.32,2.14,7.32,6.1a5.08,5.08,0,0,1-2.44,4.49A5.26,5.26,0,0,1,138.81,6.61Zm-5.47-9.17c0-1.45-.83-2.21-2.84-2.21h-5.87V-.38h6.1C132.64-.38,133.34-1.27,133.34-2.56Zm.72,9.24c0-2-1.05-3-3.3-3h-6.13v6h6.13C133,9.68,134.06,8.49,134.06,6.68Z"/><path class="cls-2" d="M163.2,14.07h-5.08L156.3,8.92h-8.44L146,14.07h-4.95L149.93-9h4.49Zm-8.48-9.53L153.23.35c-.46-1.36-.92-2.74-1.15-3.6-.23.86-.69,2.24-1.16,3.6l-1.48,4.19Z"/><path class="cls-2" d="M183.59,7.08c0,4.38-2.77,7.35-9.08,7.35-3.85,0-7.22-1.61-9-4.19l3.33-3a7.5,7.5,0,0,0,5.91,2.64c2.74,0,4-.76,4-2.5,0-1.49-.79-2.15-5.14-3.14s-7.23-2.34-7.23-6.89c0-4.19,3.7-6.77,8.25-6.77a11,11,0,0,1,8.41,3.63l-3.33,3.24a7,7,0,0,0-5.25-2.38c-2.47,0-3.29,1.06-3.29,2.08,0,1.45,1,1.91,4.65,2.77S183.59,2.06,183.59,7.08Z"/><path class="cls-2" d="M208.07,14.07H203l-1.82-5.15h-8.44l-1.82,5.15H186L194.81-9h4.48Zm-8.48-9.53L198.11.35c-.47-1.36-.93-2.74-1.16-3.6-.23.86-.69,2.24-1.15,3.6l-1.49,4.19Z"/><path class="cls-2" d="M231.06,14.07h-5.31l-4.12-8.31H217v8.31h-4.62V-9h10.75c4.36,0,7.95,2.4,7.95,7.32,0,3.46-1.48,5.64-4.42,6.8ZM226.31-1.6c0-2.08-1.25-2.94-3.29-2.94h-6V1.4h6C225.16,1.4,226.31.41,226.31-1.6Z"/><path class="cls-2" d="M239.84,11.33a3.1,3.1,0,1,1-3.1-3.1A3.14,3.14,0,0,1,239.84,11.33Z"/><path class="cls-2" d="M262.9,14.07h-4.12L250.3,1.47c-.56-.86-1.32-2-1.62-2.61,0,.86.07,3.76.07,5.05V14.07H244.2V-9h4.42l8.18,12.2c.56.86,1.32,2,1.62,2.61,0-.86-.07-3.76-.07-5V-9h4.55Z"/><path class="cls-2" d="M287.91,2.49c0,7.46-4.19,11.94-10.19,11.94S267.56,10,267.56,2.56s4.19-12,10.22-12S287.91-5,287.91,2.49Zm-4.75.07c0-4.69-2.24-7.36-5.48-7.36s-5.37,2.61-5.37,7.29,2.24,7.36,5.47,7.36S283.16,7.24,283.16,2.56Z"/></g><g class="cls-9"><path class="cls-2" d="M40.66,239.9c0,4.39-2.77,7.36-9.07,7.36-3.86,0-7.23-1.62-9-4.19l3.34-3a7.46,7.46,0,0,0,5.9,2.64c2.74,0,4-.76,4-2.51,0-1.48-.8-2.14-5.15-3.13s-7.23-2.34-7.23-6.89c0-4.19,3.7-6.77,8.25-6.77a11,11,0,0,1,8.41,3.63l-3.33,3.23a7,7,0,0,0-5.24-2.37c-2.48,0-3.3,1.06-3.3,2.08,0,1.45,1,1.91,4.65,2.77S40.66,234.89,40.66,239.9Z"/><path class="cls-2" d="M63.59,231.13c0,5.34-3.56,7.59-8.35,7.59H50.16v8.18H45.54V223.81h10.1C60,223.81,63.59,226.21,63.59,231.13Zm-4.75.1c0-2-1.32-2.94-3.37-2.94H50.16v5.94h5.38C57.68,234.23,58.84,233.24,58.84,231.23Z"/><path class="cls-2" d="M72.93,246.9H68.31V223.81h4.62Z"/><path class="cls-2" d="M95.4,246.9H79.2V223.81h4.62v18.54H95.4Z"/><path class="cls-2" d="M115.85,246.9H99.65V223.81h4.62v18.54h11.58Z"/><path class="cls-2" d="M138.81,239.44c0,4.85-3.26,7.46-8.21,7.46H120.11V223.81H130.7c4.49,0,7.32,2.14,7.32,6.1a5.08,5.08,0,0,1-2.44,4.49A5.26,5.26,0,0,1,138.81,239.44Zm-5.47-9.17c0-1.45-.83-2.21-2.84-2.21h-5.87v4.39h6.1C132.64,232.45,133.34,231.56,133.34,230.27Zm.72,9.24c0-2-1.05-3-3.3-3h-6.13v6h6.13C133,242.51,134.06,241.32,134.06,239.51Z"/><path class="cls-2" d="M163.2,246.9h-5.08l-1.82-5.15h-8.44L146,246.9h-4.95l8.84-23.09h4.49Zm-8.48-9.54-1.49-4.19c-.46-1.35-.92-2.73-1.15-3.59-.23.86-.69,2.24-1.16,3.59l-1.48,4.19Z"/><path class="cls-2" d="M183.59,239.9c0,4.39-2.77,7.36-9.08,7.36-3.85,0-7.22-1.62-9-4.19l3.33-3a7.5,7.5,0,0,0,5.91,2.64c2.74,0,4-.76,4-2.51,0-1.48-.79-2.14-5.14-3.13s-7.23-2.34-7.23-6.89c0-4.19,3.7-6.77,8.25-6.77a11,11,0,0,1,8.41,3.63l-3.33,3.23a7.05,7.05,0,0,0-5.25-2.37c-2.47,0-3.29,1.06-3.29,2.08,0,1.45,1,1.91,4.65,2.77S183.59,234.89,183.59,239.9Z"/><path class="cls-2" d="M208.07,246.9H203l-1.82-5.15h-8.44l-1.82,5.15H186l8.85-23.09h4.48Zm-8.48-9.54-1.48-4.19c-.47-1.35-.93-2.73-1.16-3.59-.23.86-.69,2.24-1.15,3.59l-1.49,4.19Z"/><path class="cls-2" d="M231.06,246.9h-5.31l-4.12-8.32H217v8.32h-4.62V223.81h10.75c4.36,0,7.95,2.4,7.95,7.32,0,3.46-1.48,5.64-4.42,6.79Zm-4.75-15.67c0-2.08-1.25-2.94-3.29-2.94h-6v5.94h6C225.16,234.23,226.31,233.24,226.31,231.23Z"/><path class="cls-2" d="M239.84,244.16a3.1,3.1,0,1,1-3.1-3.1A3.14,3.14,0,0,1,239.84,244.16Z"/><path class="cls-2" d="M262.9,246.9h-4.12l-8.48-12.6c-.56-.86-1.32-2-1.62-2.61,0,.86.07,3.76.07,5.05V246.9H244.2V223.81h4.42L256.8,236c.56.86,1.32,2,1.62,2.61,0-.86-.07-3.76-.07-5.05v-9.76h4.55Z"/><path class="cls-2" d="M287.91,235.32c0,7.45-4.19,11.94-10.19,11.94s-10.16-4.42-10.16-11.88,4.19-11.94,10.22-11.94S287.91,227.86,287.91,235.32Zm-4.75.06c0-4.68-2.24-7.35-5.48-7.35s-5.37,2.6-5.37,7.29,2.24,7.36,5.47,7.36S283.16,240.07,283.16,235.38Z"/></g><g class="cls-8"><path class="cls-2" d="M40.66,216.66c0,4.38-2.77,7.35-9.07,7.35-3.86,0-7.23-1.61-9-4.19l3.34-3a7.43,7.43,0,0,0,5.9,2.64c2.74,0,4-.75,4-2.5,0-1.49-.8-2.15-5.15-3.14S23.5,211.51,23.5,207c0-4.19,3.7-6.76,8.25-6.76a11,11,0,0,1,8.41,3.62l-3.33,3.24a7,7,0,0,0-5.24-2.38c-2.48,0-3.3,1.06-3.3,2.08,0,1.45,1,1.91,4.65,2.77S40.66,211.64,40.66,216.66Z"/><path class="cls-2" d="M63.59,207.88c0,5.35-3.56,7.59-8.35,7.59H50.16v8.18H45.54V200.56h10.1C60,200.56,63.59,203,63.59,207.88Zm-4.75.1c0-2-1.32-2.94-3.37-2.94H50.16V211h5.38C57.68,211,58.84,210,58.84,208Z"/><path class="cls-2" d="M72.93,223.65H68.31V200.56h4.62Z"/><path class="cls-2" d="M95.4,223.65H79.2V200.56h4.62V219.1H95.4Z"/><path class="cls-2" d="M115.85,223.65H99.65V200.56h4.62V219.1h11.58Z"/><path class="cls-2" d="M138.81,216.2c0,4.84-3.26,7.45-8.21,7.45H120.11V200.56H130.7c4.49,0,7.32,2.14,7.32,6.1a5.08,5.08,0,0,1-2.44,4.49A5.27,5.27,0,0,1,138.81,216.2ZM133.34,207c0-1.45-.83-2.21-2.84-2.21h-5.87v4.39h6.1C132.64,209.2,133.34,208.31,133.34,207Zm.72,9.24c0-2-1.05-3-3.3-3h-6.13v6h6.13C133,219.26,134.06,218.08,134.06,216.26Z"/><path class="cls-2" d="M163.2,223.65h-5.08l-1.82-5.15h-8.44L146,223.65h-4.95l8.84-23.09h4.49Zm-8.48-9.53-1.49-4.19c-.46-1.36-.92-2.74-1.15-3.6-.23.86-.69,2.24-1.16,3.6l-1.48,4.19Z"/><path class="cls-2" d="M183.59,216.66c0,4.38-2.77,7.35-9.08,7.35-3.85,0-7.22-1.61-9-4.19l3.33-3a7.47,7.47,0,0,0,5.91,2.64c2.74,0,4-.75,4-2.5,0-1.49-.79-2.15-5.14-3.14s-7.23-2.34-7.23-6.89c0-4.19,3.7-6.76,8.25-6.76a11,11,0,0,1,8.41,3.62l-3.33,3.24a7,7,0,0,0-5.25-2.38c-2.47,0-3.29,1.06-3.29,2.08,0,1.45,1,1.91,4.65,2.77S183.59,211.64,183.59,216.66Z"/><path class="cls-2" d="M208.07,223.65H203l-1.82-5.15h-8.44l-1.82,5.15H186l8.85-23.09h4.48Zm-8.48-9.53-1.48-4.19c-.47-1.36-.93-2.74-1.16-3.6-.23.86-.69,2.24-1.15,3.6l-1.49,4.19Z"/><path class="cls-2" d="M231.06,223.65h-5.31l-4.12-8.31H217v8.31h-4.62V200.56h10.75c4.36,0,7.95,2.41,7.95,7.32,0,3.47-1.48,5.64-4.42,6.8ZM226.31,208c0-2.08-1.25-2.94-3.29-2.94h-6V211h6C225.16,211,226.31,210,226.31,208Z"/><path class="cls-2" d="M239.84,220.91a3.1,3.1,0,1,1-3.1-3.1A3.14,3.14,0,0,1,239.84,220.91Z"/><path class="cls-2" d="M262.9,223.65h-4.12l-8.48-12.6c-.56-.86-1.32-2-1.62-2.61,0,.86.07,3.76.07,5.05v10.16H244.2V200.56h4.42l8.18,12.2c.56.86,1.32,2,1.62,2.61,0-.86-.07-3.76-.07-5.05v-9.76h4.55Z"/><path class="cls-2" d="M287.91,212.07c0,7.46-4.19,11.94-10.19,11.94s-10.16-4.42-10.16-11.87,4.19-11.94,10.22-11.94S287.91,204.62,287.91,212.07Zm-4.75.07c0-4.69-2.24-7.36-5.48-7.36s-5.37,2.61-5.37,7.29,2.24,7.36,5.47,7.36S283.16,216.82,283.16,212.14Z"/></g><g class="cls-7"><path class="cls-2" d="M40.66,193.67c0,4.39-2.77,7.36-9.07,7.36-3.86,0-7.23-1.62-9-4.19l3.34-3a7.46,7.46,0,0,0,5.9,2.64c2.74,0,4-.76,4-2.51,0-1.48-.8-2.14-5.15-3.13s-7.23-2.34-7.23-6.9c0-4.19,3.7-6.76,8.25-6.76a11,11,0,0,1,8.41,3.63l-3.33,3.23a7,7,0,0,0-5.24-2.37c-2.48,0-3.3,1.05-3.3,2.08,0,1.45,1,1.91,4.65,2.77S40.66,188.66,40.66,193.67Z"/><path class="cls-2" d="M63.59,184.9c0,5.34-3.56,7.58-8.35,7.58H50.16v8.19H45.54v-23.1h10.1C60,177.57,63.59,180,63.59,184.9Zm-4.75.1c0-2-1.32-2.94-3.37-2.94H50.16V188h5.38C57.68,188,58.84,187,58.84,185Z"/><path class="cls-2" d="M72.93,200.67H68.31v-23.1h4.62Z"/><path class="cls-2" d="M95.4,200.67H79.2v-23.1h4.62v18.54H95.4Z"/><path class="cls-2" d="M115.85,200.67H99.65v-23.1h4.62v18.54h11.58Z"/><path class="cls-2" d="M138.81,193.21c0,4.85-3.26,7.46-8.21,7.46H120.11v-23.1H130.7c4.49,0,7.32,2.15,7.32,6.11a5.05,5.05,0,0,1-2.44,4.48A5.28,5.28,0,0,1,138.81,193.21ZM133.34,184c0-1.45-.83-2.21-2.84-2.21h-5.87v4.39h6.1C132.64,186.22,133.34,185.33,133.34,184Zm.72,9.24c0-2-1.05-3-3.3-3h-6.13v6h6.13C133,196.28,134.06,195.09,134.06,193.28Z"/><path class="cls-2" d="M163.2,200.67h-5.08l-1.82-5.15h-8.44L146,200.67h-4.95l8.84-23.1h4.49Zm-8.48-9.54-1.49-4.19c-.46-1.35-.92-2.74-1.15-3.59-.23.85-.69,2.24-1.16,3.59l-1.48,4.19Z"/><path class="cls-2" d="M183.59,193.67c0,4.39-2.77,7.36-9.08,7.36-3.85,0-7.22-1.62-9-4.19l3.33-3a7.5,7.5,0,0,0,5.91,2.64c2.74,0,4-.76,4-2.51,0-1.48-.79-2.14-5.14-3.13s-7.23-2.34-7.23-6.9c0-4.19,3.7-6.76,8.25-6.76a11,11,0,0,1,8.41,3.63l-3.33,3.23a7,7,0,0,0-5.25-2.37c-2.47,0-3.29,1.05-3.29,2.08,0,1.45,1,1.91,4.65,2.77S183.59,188.66,183.59,193.67Z"/><path class="cls-2" d="M208.07,200.67H203l-1.82-5.15h-8.44l-1.82,5.15H186l8.85-23.1h4.48Zm-8.48-9.54-1.48-4.19c-.47-1.35-.93-2.74-1.16-3.59-.23.85-.69,2.24-1.15,3.59l-1.49,4.19Z"/><path class="cls-2" d="M231.06,200.67h-5.31l-4.12-8.32H217v8.32h-4.62v-23.1h10.75c4.36,0,7.95,2.41,7.95,7.33,0,3.46-1.48,5.64-4.42,6.79ZM226.31,185c0-2.08-1.25-2.94-3.29-2.94h-6V188h6C225.16,188,226.31,187,226.31,185Z"/><path class="cls-2" d="M239.84,197.93a3.1,3.1,0,1,1-3.1-3.1A3.14,3.14,0,0,1,239.84,197.93Z"/><path class="cls-2" d="M262.9,200.67h-4.12l-8.48-12.61c-.56-.85-1.32-2-1.62-2.6,0,.86.07,3.76.07,5v10.17H244.2v-23.1h4.42l8.18,12.21c.56.86,1.32,2,1.62,2.61,0-.86-.07-3.77-.07-5v-9.77h4.55Z"/><path class="cls-2" d="M287.91,189.09c0,7.45-4.19,11.94-10.19,11.94s-10.16-4.42-10.16-11.88,4.19-11.94,10.22-11.94S287.91,181.63,287.91,189.09Zm-4.75.06c0-4.68-2.24-7.35-5.48-7.35s-5.37,2.6-5.37,7.29,2.24,7.35,5.47,7.35S283.16,193.84,283.16,189.15Z"/></g><g class="cls-11"><path class="cls-2" d="M40.66,285.69c0,4.39-2.77,7.36-9.07,7.36-3.86,0-7.23-1.62-9-4.19l3.34-3a7.46,7.46,0,0,0,5.9,2.64c2.74,0,4-.76,4-2.51,0-1.48-.8-2.14-5.15-3.13S23.5,280.55,23.5,276c0-4.19,3.7-6.77,8.25-6.77a11,11,0,0,1,8.41,3.63l-3.33,3.23a7,7,0,0,0-5.24-2.37c-2.48,0-3.3,1-3.3,2.08,0,1.45,1,1.91,4.65,2.77S40.66,280.68,40.66,285.69Z"/><path class="cls-2" d="M63.59,276.92c0,5.34-3.56,7.59-8.35,7.59H50.16v8.18H45.54v-23.1h10.1C60,269.59,63.59,272,63.59,276.92Zm-4.75.1c0-2-1.32-2.94-3.37-2.94H50.16V280h5.38C57.68,280,58.84,279,58.84,277Z"/><path class="cls-2" d="M72.93,292.69H68.31v-23.1h4.62Z"/><path class="cls-2" d="M95.4,292.69H79.2v-23.1h4.62v18.54H95.4Z"/><path class="cls-2" d="M115.85,292.69H99.65v-23.1h4.62v18.54h11.58Z"/><path class="cls-2" d="M138.81,285.23c0,4.85-3.26,7.46-8.21,7.46H120.11v-23.1H130.7c4.49,0,7.32,2.15,7.32,6.11a5.05,5.05,0,0,1-2.44,4.48A5.28,5.28,0,0,1,138.81,285.23Zm-5.47-9.17c0-1.45-.83-2.21-2.84-2.21h-5.87v4.39h6.1C132.64,278.24,133.34,277.35,133.34,276.06Zm.72,9.24c0-2-1.05-3-3.3-3h-6.13v6h6.13C133,288.3,134.06,287.11,134.06,285.3Z"/><path class="cls-2" d="M163.2,292.69h-5.08l-1.82-5.15h-8.44L146,292.69h-4.95l8.84-23.1h4.49Zm-8.48-9.54L153.23,279c-.46-1.35-.92-2.73-1.15-3.59-.23.86-.69,2.24-1.16,3.59l-1.48,4.19Z"/><path class="cls-2" d="M183.59,285.69c0,4.39-2.77,7.36-9.08,7.36-3.85,0-7.22-1.62-9-4.19l3.33-3a7.5,7.5,0,0,0,5.91,2.64c2.74,0,4-.76,4-2.51,0-1.48-.79-2.14-5.14-3.13s-7.23-2.34-7.23-6.89c0-4.19,3.7-6.77,8.25-6.77a11,11,0,0,1,8.41,3.63l-3.33,3.23a7.05,7.05,0,0,0-5.25-2.37c-2.47,0-3.29,1-3.29,2.08,0,1.45,1,1.91,4.65,2.77S183.59,280.68,183.59,285.69Z"/><path class="cls-2" d="M208.07,292.69H203l-1.82-5.15h-8.44l-1.82,5.15H186l8.85-23.1h4.48Zm-8.48-9.54L198.11,279c-.47-1.35-.93-2.73-1.16-3.59-.23.86-.69,2.24-1.15,3.59l-1.49,4.19Z"/><path class="cls-2" d="M231.06,292.69h-5.31l-4.12-8.32H217v8.32h-4.62v-23.1h10.75c4.36,0,7.95,2.41,7.95,7.33,0,3.46-1.48,5.64-4.42,6.79ZM226.31,277c0-2.08-1.25-2.94-3.29-2.94h-6V280h6C225.16,280,226.31,279,226.31,277Z"/><path class="cls-2" d="M239.84,290a3.1,3.1,0,1,1-3.1-3.1A3.14,3.14,0,0,1,239.84,290Z"/><path class="cls-2" d="M262.9,292.69h-4.12l-8.48-12.6c-.56-.86-1.32-2-1.62-2.61,0,.86.07,3.76.07,5v10.16H244.2v-23.1h4.42l8.18,12.21c.56.86,1.32,2,1.62,2.61,0-.86-.07-3.76-.07-5.05v-9.77h4.55Z"/><path class="cls-2" d="M287.91,281.11c0,7.45-4.19,11.94-10.19,11.94s-10.16-4.42-10.16-11.88,4.19-11.94,10.22-11.94S287.91,273.65,287.91,281.11Zm-4.75.06c0-4.68-2.24-7.35-5.48-7.35s-5.37,2.6-5.37,7.29,2.24,7.35,5.47,7.35S283.16,285.86,283.16,281.17Z"/></g><g class="cls-10"><path class="cls-2" d="M40.66,262.71c0,4.39-2.77,7.36-9.07,7.36-3.86,0-7.23-1.62-9-4.19l3.34-3a7.46,7.46,0,0,0,5.9,2.64c2.74,0,4-.76,4-2.51,0-1.49-.8-2.15-5.15-3.14S23.5,257.56,23.5,253c0-4.19,3.7-6.76,8.25-6.76a11,11,0,0,1,8.41,3.63l-3.33,3.23a7,7,0,0,0-5.24-2.38c-2.48,0-3.3,1.06-3.3,2.08,0,1.45,1,1.92,4.65,2.77S40.66,257.69,40.66,262.71Z"/><path class="cls-2" d="M63.59,253.93c0,5.35-3.56,7.59-8.35,7.59H50.16v8.18H45.54V246.61h10.1C60,246.61,63.59,249,63.59,253.93Zm-4.75.1c0-2-1.32-2.93-3.37-2.93H50.16V257h5.38C57.68,257,58.84,256,58.84,254Z"/><path class="cls-2" d="M72.93,269.7H68.31V246.61h4.62Z"/><path class="cls-2" d="M95.4,269.7H79.2V246.61h4.62v18.54H95.4Z"/><path class="cls-2" d="M115.85,269.7H99.65V246.61h4.62v18.54h11.58Z"/><path class="cls-2" d="M138.81,262.25c0,4.85-3.26,7.45-8.21,7.45H120.11V246.61H130.7c4.49,0,7.32,2.14,7.32,6.1a5.07,5.07,0,0,1-2.44,4.49A5.27,5.27,0,0,1,138.81,262.25Zm-5.47-9.17c0-1.46-.83-2.21-2.84-2.21h-5.87v4.38h6.1C132.64,255.25,133.34,254.36,133.34,253.08Zm.72,9.23c0-2-1.05-3-3.3-3h-6.13v6h6.13C133,265.31,134.06,264.13,134.06,262.31Z"/><path class="cls-2" d="M163.2,269.7h-5.08l-1.82-5.14h-8.44L146,269.7h-4.95l8.84-23.09h4.49Zm-8.48-9.53L153.23,256c-.46-1.35-.92-2.74-1.15-3.6-.23.86-.69,2.25-1.16,3.6l-1.48,4.19Z"/><path class="cls-2" d="M183.59,262.71c0,4.39-2.77,7.36-9.08,7.36-3.85,0-7.22-1.62-9-4.19l3.33-3a7.5,7.5,0,0,0,5.91,2.64c2.74,0,4-.76,4-2.51,0-1.49-.79-2.15-5.14-3.14s-7.23-2.34-7.23-6.89c0-4.19,3.7-6.76,8.25-6.76a11,11,0,0,1,8.41,3.63l-3.33,3.23a7,7,0,0,0-5.25-2.38c-2.47,0-3.29,1.06-3.29,2.08,0,1.45,1,1.92,4.65,2.77S183.59,257.69,183.59,262.71Z"/><path class="cls-2" d="M208.07,269.7H203l-1.82-5.14h-8.44l-1.82,5.14H186l8.85-23.09h4.48Zm-8.48-9.53L198.11,256c-.47-1.35-.93-2.74-1.16-3.6-.23.86-.69,2.25-1.15,3.6l-1.49,4.19Z"/><path class="cls-2" d="M231.06,269.7h-5.31l-4.12-8.31H217v8.31h-4.62V246.61h10.75c4.36,0,7.95,2.41,7.95,7.32,0,3.47-1.48,5.64-4.42,6.8ZM226.31,254c0-2.08-1.25-2.93-3.29-2.93h-6V257h6C225.16,257,226.31,256,226.31,254Z"/><path class="cls-2" d="M239.84,267a3.1,3.1,0,1,1-3.1-3.1A3.14,3.14,0,0,1,239.84,267Z"/><path class="cls-2" d="M262.9,269.7h-4.12l-8.48-12.6c-.56-.86-1.32-2-1.62-2.61,0,.86.07,3.76.07,5.05V269.7H244.2V246.61h4.42l8.18,12.21c.56.85,1.32,2,1.62,2.6,0-.86-.07-3.76-.07-5v-9.77h4.55Z"/><path class="cls-2" d="M287.91,258.12c0,7.46-4.19,11.95-10.19,11.95s-10.16-4.43-10.16-11.88,4.19-11.94,10.22-11.94S287.91,250.67,287.91,258.12Zm-4.75.07c0-4.69-2.24-7.36-5.48-7.36s-5.37,2.61-5.37,7.29,2.24,7.36,5.47,7.36S283.16,262.87,283.16,258.19Z"/></g><g class="cls-6"><path class="cls-2" d="M40.66,170.09c0,4.39-2.77,7.36-9.07,7.36-3.86,0-7.23-1.62-9-4.19l3.34-3a7.46,7.46,0,0,0,5.9,2.64c2.74,0,4-.76,4-2.51,0-1.48-.8-2.14-5.15-3.13s-7.23-2.35-7.23-6.9c0-4.19,3.7-6.76,8.25-6.76a11,11,0,0,1,8.41,3.63l-3.33,3.23a7,7,0,0,0-5.24-2.37c-2.48,0-3.3,1-3.3,2.07,0,1.46,1,1.92,4.65,2.77S40.66,165.08,40.66,170.09Z"/><path class="cls-2" d="M63.59,161.32c0,5.34-3.56,7.58-8.35,7.58H50.16v8.18H45.54V154h10.1C60,154,63.59,156.4,63.59,161.32Zm-4.75.1c0-2-1.32-2.94-3.37-2.94H50.16v5.94h5.38C57.68,164.42,58.84,163.43,58.84,161.42Z"/><path class="cls-2" d="M72.93,177.08H68.31V154h4.62Z"/><path class="cls-2" d="M95.4,177.08H79.2V154h4.62v18.54H95.4Z"/><path class="cls-2" d="M115.85,177.08H99.65V154h4.62v18.54h11.58Z"/><path class="cls-2" d="M138.81,169.63c0,4.85-3.26,7.45-8.21,7.45H120.11V154H130.7c4.49,0,7.32,2.15,7.32,6.1a5.07,5.07,0,0,1-2.44,4.49A5.28,5.28,0,0,1,138.81,169.63Zm-5.47-9.17c0-1.45-.83-2.21-2.84-2.21h-5.87v4.39h6.1C132.64,162.64,133.34,161.74,133.34,160.46Zm.72,9.24c0-2-1.05-3-3.3-3h-6.13v6h6.13C133,172.7,134.06,171.51,134.06,169.7Z"/><path class="cls-2" d="M163.2,177.08h-5.08l-1.82-5.14h-8.44L146,177.08h-4.95L149.93,154h4.49Zm-8.48-9.53-1.49-4.19c-.46-1.35-.92-2.74-1.15-3.59-.23.85-.69,2.24-1.16,3.59l-1.48,4.19Z"/><path class="cls-2" d="M183.59,170.09c0,4.39-2.77,7.36-9.08,7.36-3.85,0-7.22-1.62-9-4.19l3.33-3a7.5,7.5,0,0,0,5.91,2.64c2.74,0,4-.76,4-2.51,0-1.48-.79-2.14-5.14-3.13s-7.23-2.35-7.23-6.9c0-4.19,3.7-6.76,8.25-6.76a11,11,0,0,1,8.41,3.63l-3.33,3.23a7,7,0,0,0-5.25-2.37c-2.47,0-3.29,1-3.29,2.07,0,1.46,1,1.92,4.65,2.77S183.59,165.08,183.59,170.09Z"/><path class="cls-2" d="M208.07,177.08H203l-1.82-5.14h-8.44l-1.82,5.14H186L194.81,154h4.48Zm-8.48-9.53-1.48-4.19c-.47-1.35-.93-2.74-1.16-3.59-.23.85-.69,2.24-1.15,3.59l-1.49,4.19Z"/><path class="cls-2" d="M231.06,177.08h-5.31l-4.12-8.31H217v8.31h-4.62V154h10.75c4.36,0,7.95,2.41,7.95,7.33,0,3.46-1.48,5.64-4.42,6.79Zm-4.75-15.66c0-2.08-1.25-2.94-3.29-2.94h-6v5.94h6C225.16,164.42,226.31,163.43,226.31,161.42Z"/><path class="cls-2" d="M239.84,174.35a3.1,3.1,0,1,1-3.1-3.1A3.14,3.14,0,0,1,239.84,174.35Z"/><path class="cls-2" d="M262.9,177.08h-4.12l-8.48-12.6c-.56-.86-1.32-2-1.62-2.6,0,.85.07,3.76.07,5v10.16H244.2V154h4.42l8.18,12.21c.56.86,1.32,2,1.62,2.6,0-.85-.07-3.76-.07-5V154h4.55Z"/><path class="cls-2" d="M287.91,165.51c0,7.45-4.19,11.94-10.19,11.94s-10.16-4.42-10.16-11.88,4.19-11.94,10.22-11.94S287.91,158.05,287.91,165.51Zm-4.75.06c0-4.68-2.24-7.36-5.48-7.36s-5.37,2.61-5.37,7.3,2.24,7.35,5.47,7.35S283.16,170.26,283.16,165.57Z"/></g><rect class="cls-12" y="0.53" width="299.47" height="299.47"/><path class="cls-5" d="M40.66,147c0,4.39-2.77,7.36-9.07,7.36-3.86,0-7.23-1.62-9-4.19l3.34-3a7.46,7.46,0,0,0,5.9,2.64c2.74,0,4-.76,4-2.51,0-1.49-.8-2.14-5.15-3.13s-7.23-2.35-7.23-6.9c0-4.19,3.7-6.76,8.25-6.76a11,11,0,0,1,8.41,3.63l-3.33,3.23A7,7,0,0,0,31.59,135c-2.48,0-3.3,1.06-3.3,2.08,0,1.45,1,1.92,4.65,2.77S40.66,142,40.66,147Z"/><path class="cls-5" d="M63.59,138.22c0,5.35-3.56,7.59-8.35,7.59H50.16V154H45.54V130.9h10.1C60,130.9,63.59,133.31,63.59,138.22Zm-4.75.1c0-2-1.32-2.93-3.37-2.93H50.16v5.94h5.38C57.68,141.33,58.84,140.34,58.84,138.32Z"/><path class="cls-5" d="M72.93,154H68.31V130.9h4.62Z"/><path class="cls-5" d="M95.4,154H79.2V130.9h4.62v18.54H95.4Z"/><path class="cls-5" d="M115.85,154H99.65V130.9h4.62v18.54h11.58Z"/><path class="cls-5" d="M138.81,146.54c0,4.85-3.26,7.45-8.21,7.45H120.11V130.9H130.7c4.49,0,7.32,2.14,7.32,6.1a5.07,5.07,0,0,1-2.44,4.49A5.27,5.27,0,0,1,138.81,146.54Zm-5.47-9.17c0-1.45-.83-2.21-2.84-2.21h-5.87v4.38h6.1C132.64,139.54,133.34,138.65,133.34,137.37Zm.72,9.23c0-2-1.05-3-3.3-3h-6.13v6h6.13C133,149.61,134.06,148.42,134.06,146.6Z"/><path class="cls-5" d="M163.2,154h-5.08l-1.82-5.14h-8.44L146,154h-4.95l8.84-23.09h4.49Zm-8.48-9.53-1.49-4.19c-.46-1.35-.92-2.74-1.15-3.6-.23.86-.69,2.25-1.16,3.6l-1.48,4.19Z"/><path class="cls-5" d="M183.59,147c0,4.39-2.77,7.36-9.08,7.36-3.85,0-7.22-1.62-9-4.19l3.33-3a7.5,7.5,0,0,0,5.91,2.64c2.74,0,4-.76,4-2.51,0-1.49-.79-2.14-5.14-3.13s-7.23-2.35-7.23-6.9c0-4.19,3.7-6.76,8.25-6.76a11,11,0,0,1,8.41,3.63l-3.33,3.23a7,7,0,0,0-5.25-2.38c-2.47,0-3.29,1.06-3.29,2.08,0,1.45,1,1.92,4.65,2.77S183.59,142,183.59,147Z"/><path class="cls-5" d="M208.07,154H203l-1.82-5.14h-8.44L190.91,154H186l8.85-23.09h4.48Zm-8.48-9.53-1.48-4.19c-.47-1.35-.93-2.74-1.16-3.6-.23.86-.69,2.25-1.15,3.6l-1.49,4.19Z"/><path class="cls-5" d="M231.06,154h-5.31l-4.12-8.31H217V154h-4.62V130.9h10.75c4.36,0,7.95,2.41,7.95,7.32,0,3.47-1.48,5.65-4.42,6.8Zm-4.75-15.67c0-2.08-1.25-2.93-3.29-2.93h-6v5.94h6C225.16,141.33,226.31,140.34,226.31,138.32Z"/><path class="cls-5" d="M239.84,151.25a3.1,3.1,0,1,1-3.1-3.1A3.14,3.14,0,0,1,239.84,151.25Z"/><path class="cls-5" d="M262.9,154h-4.12l-8.48-12.6c-.56-.86-1.32-2-1.62-2.6,0,.85.07,3.76.07,5V154H244.2V130.9h4.42l8.18,12.21c.56.85,1.32,2,1.62,2.6,0-.86-.07-3.76-.07-5V130.9h4.55Z"/><path class="cls-5" d="M287.91,142.41c0,7.46-4.19,12-10.19,12s-10.16-4.42-10.16-11.88,4.19-11.94,10.22-11.94S287.91,135,287.91,142.41Zm-4.75.07c0-4.68-2.24-7.36-5.48-7.36s-5.37,2.61-5.37,7.29,2.24,7.36,5.47,7.36S283.16,147.16,283.16,142.48Z"/></g></svg>